<?xml version="1.0" encoding="UTF-8"?>
<svg width="375px" height="355px" viewBox="0 0 375 355" version="1.1" xmlns="http://www.w3.org/2000/svg" xmlns:xlink="http://www.w3.org/1999/xlink">
    <!-- Generator: Sketch 52.6 (67491) - http://www.bohemiancoding.com/sketch -->
    <title>slide_1</title>
    <desc>Created with Sketch.</desc>
    <defs>
        <linearGradient x1="0%" y1="50%" x2="100%" y2="50%" id="linearGradient-1">
            <stop stop-color="#CED8FF" stop-opacity="0.631" offset="0%"></stop>
            <stop stop-color="#CED8FF" stop-opacity="0.84" offset="100%"></stop>
        </linearGradient>
        <linearGradient x1="-35.3%" y1="-30.5%" x2="122.8%" y2="118.7%" id="linearGradient-2">
            <stop stop-color="#1054DD" offset="0%"></stop>
            <stop stop-color="#1054DD" offset="19.1%"></stop>
            <stop stop-color="#1054DD" offset="50.3%"></stop>
            <stop stop-color="#1054DD" offset="100%"></stop>
        </linearGradient>
        <linearGradient x1="-50%" y1="-6.1%" x2="240.1%" y2="156.4%" id="linearGradient-3">
            <stop stop-color="#FFFFFF" offset="0%"></stop>
            <stop stop-color="#F7F9FB" offset="1.2%"></stop>
            <stop stop-color="#CBD6E8" offset="9.6%"></stop>
            <stop stop-color="#A4B6D6" offset="18.6%"></stop>
            <stop stop-color="#839CC8" offset="28.1%"></stop>
            <stop stop-color="#6887BC" offset="38.3%"></stop>
            <stop stop-color="#5376B3" offset="49.3%"></stop>
            <stop stop-color="#456AAC" offset="61.7%"></stop>
            <stop stop-color="#3C64A9" offset="76.5%"></stop>
            <stop stop-color="#3A62A8" offset="100%"></stop>
        </linearGradient>
        <path d="M137.902,4.237 L137.902,214.421 C137.89429,216.756048 136.00006,218.645361 133.665,218.647 L4.236,218.647 C1.90110329,218.645359 0.00715999501,216.755886 0,214.421 L0,4.237 C0.00604261508,1.8998671 1.89886859,0.00659428088 4.236,0 L133.665,0 C136.002295,0.00659170462 137.895408,1.89970533 137.902,4.237 Z" id="path-4"></path>
        <linearGradient x1="0%" y1="50%" x2="100%" y2="50%" id="linearGradient-6">
            <stop stop-color="#1054DD" offset="0%"></stop>
            <stop stop-color="#1054DD" offset="19.1%"></stop>
            <stop stop-color="#1054DD" offset="50.3%"></stop>
            <stop stop-color="#1054DD" offset="100%"></stop>
        </linearGradient>
        <linearGradient x1="0%" y1="50%" x2="100%" y2="50%" id="linearGradient-7">
            <stop stop-color="#1054DD" offset="0%"></stop>
            <stop stop-color="#2568EF" offset="19.1%"></stop>
            <stop stop-color="#2568EF" offset="50.3%"></stop>
            <stop stop-color="#1054DD" offset="100%"></stop>
        </linearGradient>
    </defs>
    <g id="Page-1" stroke="none" stroke-width="1" fill="none" fill-rule="evenodd">
        <g id="slide_1" transform="translate(-1.000000, 0.000000)">
            <g id="Group_7">
                <g id="Group_1" opacity="0.32" fill="url(#linearGradient-1)">
                    <path d="M246.068,32.112 C289.334,16.737 332.768,6.702 376.001,0 L376.001,264.678 C361.496,268.336 354.001,267 332.177,274.005 C256.353,300.951 206.543,327.051 206.077,327.427 C183.506666,345.34252 155.522345,355.064102 126.706,355 C90.271,355 54.151,339.646 29.306,310.018 C-14.568,257.665 -6.564,180.588 47.188,137.856 C55.353,131.363 130.29,73.249 246.068,32.112 Z" id="Path_25"></path>
                </g>
                <g id="Group_2" opacity="0.26" transform="translate(31.673000, 178.646000)" fill="#FFFFFF">
                    <path d="M15.958,2.117 C15.958,3.28618682 15.0101868,4.234 13.841,4.234 C12.6718132,4.234 11.724,3.28618682 11.724,2.117 C11.724,0.947813185 12.6718132,0 13.841,0 C15.0101868,0 15.958,0.947813185 15.958,2.117 Z" id="Path_26"></path>
                    <path d="M40.22,2.117 C40.2199999,2.97333755 39.7041011,3.74533576 38.9129097,4.07294846 C38.1217182,4.40056116 37.2110804,4.21925626 36.6057013,3.61359114 C36.0003223,3.00792602 35.8194477,2.09720261 36.1474342,1.30616602 C36.4754207,0.515129443 37.2476625,-0.000404505221 38.104,0 C39.2727963,0.000552100332 40.2200001,0.948203598 40.22,2.117 Z" id="Path_27"></path>
                    <path d="M64.483,2.117 C64.483,3.28618682 63.5351868,4.234 62.366,4.234 C61.1968132,4.234 60.249,3.28618682 60.249,2.117 C60.249,0.947813185 61.1968132,0 62.366,0 C63.5351868,0 64.483,0.947813185 64.483,2.117 Z" id="Path_28"></path>
                    <path d="M88.745,2.117 C88.745,3.28618682 87.7971868,4.234 86.628,4.234 C85.4588132,4.234 84.511,3.28618682 84.511,2.117 C84.511,0.947813185 85.4588132,0 86.628,0 C87.7971868,0 88.745,0.947813185 88.745,2.117 Z" id="Path_29"></path>
                    <path d="M113.008,2.117 C113.008,3.28618682 112.060187,4.234 110.891,4.234 C109.721813,4.234 108.774,3.28618682 108.774,2.117 C108.774,0.947813185 109.721813,0 110.891,0 C112.060187,0 113.008,0.947813185 113.008,2.117 Z" id="Path_30"></path>
                    <path d="M137.27,2.117 C137.27,3.28618682 136.322187,4.234 135.153,4.234 C133.983813,4.234 133.036,3.28618682 133.036,2.117 C133.036,0.947813185 133.983813,0 135.153,0 C136.322187,0 137.27,0.947813185 137.27,2.117 Z" id="Path_31"></path>
                    <path d="M161.532,2.117 C161.532,3.28618682 160.584187,4.234 159.415,4.234 C158.245813,4.234 157.298,3.28618682 157.298,2.117 C157.298,0.947813185 158.245813,0 159.415,0 C160.584187,0 161.532,0.947813185 161.532,2.117 Z" id="Path_32"></path>
                    <path d="M185.794,2.117 C185.794,3.28618682 184.846187,4.234 183.677,4.234 C182.507813,4.234 181.56,3.28618682 181.56,2.117 C181.56,0.947813185 182.507813,0 183.677,0 C184.846187,0 185.794,0.947813185 185.794,2.117 Z" id="Path_33"></path>
                    <path d="M4.234,11.235 C4.23440451,12.0913375 3.71887056,12.8635793 2.92783398,13.1915658 C2.13679739,13.5195523 1.22607398,13.3386777 0.620408859,12.7332987 C0.0147437372,12.1279196 -0.166561156,11.2172818 0.161051541,10.4260903 C0.488664238,9.63489885 1.26066245,9.1190001 2.117,9.119 C3.2857964,9.11899987 4.2334479,10.0662037 4.234,11.235 Z" id="Path_34"></path>
                    <path d="M28.495,11.235 C28.4954045,12.0914284 27.9797623,12.8637335 27.1886029,13.1916614 C26.3974435,13.5195892 25.4866416,13.3385312 24.8810552,12.7329448 C24.2754688,12.1273584 24.0944108,11.2165565 24.4223386,10.4253971 C24.7502665,9.63423774 25.5225716,9.11859555 26.379,9.119 C27.5476345,9.119 28.495,10.0663655 28.495,11.235 Z" id="Path_35"></path>
                    <path d="M52.759,11.235 C52.7594045,12.0913375 52.2438706,12.8635793 51.452834,13.1915658 C50.6617974,13.5195523 49.751074,13.3386777 49.1454089,12.7332987 C48.5397437,12.1279196 48.3584388,11.2172818 48.6860515,10.4260903 C49.0136642,9.63489885 49.7856624,9.1190001 50.642,9.119 C51.8107964,9.11899987 52.7584479,10.0662037 52.759,11.235 Z" id="Path_36"></path>
                    <path d="M77.021,11.235 C77.0214045,12.0913375 76.5058706,12.8635793 75.714834,13.1915658 C74.9237974,13.5195523 74.013074,13.3386777 73.4074089,12.7332987 C72.8017437,12.1279196 72.6204388,11.2172818 72.9480515,10.4260903 C73.2756642,9.63489885 74.0476624,9.1190001 74.904,9.119 C76.0727964,9.11899987 77.0204479,10.0662037 77.021,11.235 Z" id="Path_37"></path>
                    <path d="M101.283,11.235 C101.283405,12.0913375 100.767871,12.8635793 99.976834,13.1915658 C99.1857974,13.5195523 98.275074,13.3386777 97.6694089,12.7332987 C97.0637437,12.1279196 96.8824388,11.2172818 97.2100515,10.4260903 C97.5376642,9.63489885 98.3096624,9.1190001 99.166,9.119 C100.334796,9.11899987 101.282448,10.0662037 101.283,11.235 Z" id="Path_38"></path>
                    <path d="M125.545,11.235 C125.545404,12.0914284 125.029762,12.8637335 124.238603,13.1916614 C123.447443,13.5195892 122.536642,13.3385312 121.931055,12.7329448 C121.325469,12.1273584 121.144411,11.2165565 121.472339,10.4253971 C121.800266,9.63423774 122.572572,9.11859555 123.429,9.119 C124.597635,9.119 125.545,10.0663655 125.545,11.235 Z" id="Path_39"></path>
                    <path d="M149.807,11.235 C149.807404,12.0914284 149.291762,12.8637335 148.500603,13.1916614 C147.709443,13.5195892 146.798642,13.3385312 146.193055,12.7329448 C145.587469,12.1273584 145.406411,11.2165565 145.734339,10.4253971 C146.062266,9.63423774 146.834572,9.11859555 147.691,9.119 C148.859635,9.119 149.807,10.0663655 149.807,11.235 Z" id="Path_40"></path>
                    <path d="M174.071,11.235 C174.071405,12.0913375 173.555871,12.8635793 172.764834,13.1915658 C171.973797,13.5195523 171.063074,13.3386777 170.457409,12.7332987 C169.851744,12.1279196 169.670439,11.2172818 169.998052,10.4260903 C170.325664,9.63489885 171.097662,9.1190001 171.954,9.119 C173.122796,9.11899987 174.070448,10.0662037 174.071,11.235 Z" id="Path_41"></path>
                    <path d="M15.958,21.033 C15.958,22.2021868 15.0101868,23.15 13.841,23.15 C12.6718132,23.15 11.724,22.2021868 11.724,21.033 C11.724,19.8638132 12.6718132,18.916 13.841,18.916 C15.0101868,18.916 15.958,19.8638132 15.958,21.033 Z" id="Path_42"></path>
                    <path d="M40.22,21.033 C40.2199999,21.8893376 39.7041011,22.6613358 38.9129097,22.9889485 C38.1217182,23.3165612 37.2110804,23.1352563 36.6057013,22.5295911 C36.0003223,21.923926 35.8194477,21.0132026 36.1474342,20.222166 C36.4754207,19.4311294 37.2476625,18.9155955 38.104,18.916 C38.6653714,18.9159999 39.2037359,19.1390723 39.6005916,19.5361156 C39.9974473,19.9331588 40.2202653,20.4716287 40.22,21.033 Z" id="Path_43"></path>
                    <path d="M64.483,21.033 C64.483,22.2021868 63.5351868,23.15 62.366,23.15 C61.1968132,23.15 60.249,22.2021868 60.249,21.033 C60.249,19.8638132 61.1968132,18.916 62.366,18.916 C63.5351868,18.916 64.483,19.8638132 64.483,21.033 Z" id="Path_44"></path>
                    <path d="M88.745,21.033 C88.745,22.2021868 87.7971868,23.15 86.628,23.15 C85.4588132,23.15 84.511,22.2021868 84.511,21.033 C84.511,19.8638132 85.4588132,18.916 86.628,18.916 C87.7971868,18.916 88.745,19.8638132 88.745,21.033 Z" id="Path_45"></path>
                    <path d="M113.008,21.033 C113.008,22.2021868 112.060187,23.15 110.891,23.15 C109.721813,23.15 108.774,22.2021868 108.774,21.033 C108.774,19.8638132 109.721813,18.916 110.891,18.916 C112.060187,18.916 113.008,19.8638132 113.008,21.033 Z" id="Path_46"></path>
                    <path d="M137.27,21.033 C137.27,22.2021868 136.322187,23.15 135.153,23.15 C133.983813,23.15 133.036,22.2021868 133.036,21.033 C133.036,19.8638132 133.983813,18.916 135.153,18.916 C136.322187,18.916 137.27,19.8638132 137.27,21.033 Z" id="Path_47"></path>
                    <path d="M161.532,21.033 C161.532,22.2021868 160.584187,23.15 159.415,23.15 C158.245813,23.15 157.298,22.2021868 157.298,21.033 C157.298,19.8638132 158.245813,18.916 159.415,18.916 C160.584187,18.916 161.532,19.8638132 161.532,21.033 Z" id="Path_48"></path>
                    <path d="M185.794,21.033 C185.794,22.2021868 184.846187,23.15 183.677,23.15 C182.507813,23.15 181.56,22.2021868 181.56,21.033 C181.56,19.8638132 182.507813,18.916 183.677,18.916 C184.238545,18.9157346 184.777166,19.1386897 185.174238,19.5357618 C185.57131,19.9328339 185.794265,20.4714554 185.794,21.033 Z" id="Path_49"></path>
                    <path d="M4.234,30.152 C4.234,31.3211868 3.28618682,32.269 2.117,32.269 C0.947813185,32.269 0,31.3211868 0,30.152 C0,28.9828132 0.947813185,28.035 2.117,28.035 C3.28618682,28.035 4.234,28.9828132 4.234,30.152 Z" id="Path_50"></path>
                    <path d="M28.495,30.152 C28.4949999,31.0083376 27.9791011,31.7803358 27.1879097,32.1079485 C26.3967182,32.4355612 25.4860804,32.2542563 24.8807013,31.6485911 C24.2753223,31.042926 24.0944477,30.1322026 24.4224342,29.341166 C24.7504207,28.5501294 25.5226625,28.0345955 26.379,28.035 C27.5477963,28.0355521 28.4950001,28.9832036 28.495,30.152 Z" id="Path_51"></path>
                    <path d="M52.759,30.152 C52.759,31.0082466 52.2432095,31.7801816 51.4521408,32.107853 C50.6610721,32.4355243 49.7505127,32.2544028 49.1450549,31.6489451 C48.5395972,31.0434873 48.3584757,30.1329279 48.686147,29.3418592 C49.0138184,28.5507905 49.7857534,28.035 50.642,28.035 C51.8111868,28.035 52.759,28.9828132 52.759,30.152 Z" id="Path_52"></path>
                    <path d="M77.021,30.152 C77.021,31.0082466 76.5052095,31.7801816 75.7141408,32.107853 C74.9230721,32.4355243 74.0125127,32.2544028 73.4070549,31.6489451 C72.8015972,31.0434873 72.6204757,30.1329279 72.948147,29.3418592 C73.2758184,28.5507905 74.0477534,28.035 74.904,28.035 C76.0731868,28.035 77.021,28.9828132 77.021,30.152 Z" id="Path_53"></path>
                    <path d="M101.283,30.152 C101.283,31.3211868 100.335187,32.269 99.166,32.269 C97.9968132,32.269 97.049,31.3211868 97.049,30.152 C97.049,28.9828132 97.9968132,28.035 99.166,28.035 C100.335187,28.035 101.283,28.9828132 101.283,30.152 Z" id="Path_54"></path>
                    <circle id="Ellipse_2" cx="123.429" cy="30.152" r="2.117"></circle>
                    <path d="M149.807,30.152 C149.807,31.0083376 149.291101,31.7803358 148.49991,32.1079485 C147.708718,32.4355612 146.79808,32.2542563 146.192701,31.6485911 C145.587322,31.042926 145.406448,30.1322026 145.734434,29.341166 C146.062421,28.5501294 146.834663,28.0345955 147.691,28.035 C148.859796,28.0355521 149.807,28.9832036 149.807,30.152 Z" id="Path_55"></path>
                    <path d="M174.071,30.152 C174.071,31.3211868 173.123187,32.269 171.954,32.269 C170.784813,32.269 169.837,31.3211868 169.837,30.152 C169.837,28.9828132 170.784813,28.035 171.954,28.035 C173.123187,28.035 174.071,28.9828132 174.071,30.152 Z" id="Path_56"></path>
                    <path d="M15.958,39.949 C15.958,41.1181868 15.0101868,42.066 13.841,42.066 C12.6718132,42.066 11.724,41.1181868 11.724,39.949 C11.724,38.7798132 12.6718132,37.832 13.841,37.832 C15.0101868,37.832 15.958,38.7798132 15.958,39.949 Z" id="Path_57"></path>
                    <path d="M40.22,39.949 C40.2199999,40.8053376 39.7041011,41.5773358 38.9129097,41.9049485 C38.1217182,42.2325612 37.2110804,42.0512563 36.6057013,41.4455911 C36.0003223,40.839926 35.8194477,39.9292026 36.1474342,39.138166 C36.4754207,38.3471294 37.2476625,37.8315955 38.104,37.832 C39.2727963,37.8325521 40.2200001,38.7802036 40.22,39.949 Z" id="Path_58"></path>
                    <path d="M64.483,39.949 C64.483,41.1181868 63.5351868,42.066 62.366,42.066 C61.1968132,42.066 60.249,41.1181868 60.249,39.949 C60.249,38.7798132 61.1968132,37.832 62.366,37.832 C63.5351868,37.832 64.483,38.7798132 64.483,39.949 Z" id="Path_59"></path>
                    <path d="M88.745,39.949 C88.745,41.1181868 87.7971868,42.066 86.628,42.066 C85.4588132,42.066 84.511,41.1181868 84.511,39.949 C84.511,38.7798132 85.4588132,37.832 86.628,37.832 C87.7971868,37.832 88.745,38.7798132 88.745,39.949 Z" id="Path_60"></path>
                    <path d="M113.008,39.949 C113.008,41.1181868 112.060187,42.066 110.891,42.066 C109.721813,42.066 108.774,41.1181868 108.774,39.949 C108.774,38.7798132 109.721813,37.832 110.891,37.832 C112.060187,37.832 113.008,38.7798132 113.008,39.949 Z" id="Path_61"></path>
                    <path d="M137.27,39.949 C137.27,41.1181868 136.322187,42.066 135.153,42.066 C133.983813,42.066 133.036,41.1181868 133.036,39.949 C133.036,38.7798132 133.983813,37.832 135.153,37.832 C136.322187,37.832 137.27,38.7798132 137.27,39.949 Z" id="Path_62"></path>
                    <path d="M161.532,39.949 C161.532,41.1181868 160.584187,42.066 159.415,42.066 C158.245813,42.066 157.298,41.1181868 157.298,39.949 C157.298,38.7798132 158.245813,37.832 159.415,37.832 C160.584187,37.832 161.532,38.7798132 161.532,39.949 Z" id="Path_63"></path>
                    <path d="M185.794,39.949 C185.794,41.1181868 184.846187,42.066 183.677,42.066 C182.507813,42.066 181.56,41.1181868 181.56,39.949 C181.56,38.7798132 182.507813,37.832 183.677,37.832 C184.846187,37.832 185.794,38.7798132 185.794,39.949 Z" id="Path_64"></path>
                    <path d="M4.234,49.066 C4.23440451,49.9223375 3.71887056,50.6945793 2.92783398,51.0225658 C2.13679739,51.3505523 1.22607398,51.1696777 0.620408859,50.5642987 C0.0147437372,49.9589196 -0.166561156,49.0482818 0.161051541,48.2570903 C0.488664238,47.4658989 1.26066245,46.9500001 2.117,46.95 C3.2857964,46.9499999 4.2334479,47.8972037 4.234,49.066 Z" id="Path_65"></path>
                    <path d="M28.495,49.066 C28.4954045,49.9224284 27.9797623,50.6947335 27.1886029,51.0226614 C26.3974435,51.3505892 25.4866416,51.1695312 24.8810552,50.5639448 C24.2754688,49.9583584 24.0944108,49.0475565 24.4223386,48.2563971 C24.7502665,47.4652377 25.5225716,46.9495955 26.379,46.95 C27.5476345,46.95 28.495,47.8973655 28.495,49.066 Z" id="Path_66"></path>
                    <path d="M52.759,49.066 C52.7594045,49.9223375 52.2438706,50.6945793 51.452834,51.0225658 C50.6617974,51.3505523 49.751074,51.1696777 49.1454089,50.5642987 C48.5397437,49.9589196 48.3584388,49.0482818 48.6860515,48.2570903 C49.0136642,47.4658989 49.7856624,46.9500001 50.642,46.95 C51.8107964,46.9499999 52.7584479,47.8972037 52.759,49.066 Z" id="Path_67"></path>
                    <path d="M77.021,49.066 C77.0214045,49.9223375 76.5058706,50.6945793 75.714834,51.0225658 C74.9237974,51.3505523 74.013074,51.1696777 73.4074089,50.5642987 C72.8017437,49.9589196 72.6204388,49.0482818 72.9480515,48.2570903 C73.2756642,47.4658989 74.0476624,46.9500001 74.904,46.95 C76.0727964,46.9499999 77.0204479,47.8972037 77.021,49.066 Z" id="Path_68"></path>
                    <path d="M101.283,49.066 C101.283405,49.9223375 100.767871,50.6945793 99.976834,51.0225658 C99.1857974,51.3505523 98.275074,51.1696777 97.6694089,50.5642987 C97.0637437,49.9589196 96.8824388,49.0482818 97.2100515,48.2570903 C97.5376642,47.4658989 98.3096624,46.9500001 99.166,46.95 C100.334796,46.9499999 101.282448,47.8972037 101.283,49.066 Z" id="Path_69"></path>
                    <path d="M125.545,49.066 C125.545404,49.9224284 125.029762,50.6947335 124.238603,51.0226614 C123.447443,51.3505892 122.536642,51.1695312 121.931055,50.5639448 C121.325469,49.9583584 121.144411,49.0475565 121.472339,48.2563971 C121.800266,47.4652377 122.572572,46.9495955 123.429,46.95 C124.597635,46.95 125.545,47.8973655 125.545,49.066 Z" id="Path_70"></path>
                    <path d="M149.807,49.066 C149.807404,49.9224284 149.291762,50.6947335 148.500603,51.0226614 C147.709443,51.3505892 146.798642,51.1695312 146.193055,50.5639448 C145.587469,49.9583584 145.406411,49.0475565 145.734339,48.2563971 C146.062266,47.4652377 146.834572,46.9495955 147.691,46.95 C148.859635,46.95 149.807,47.8973655 149.807,49.066 Z" id="Path_71"></path>
                    <path d="M174.071,49.066 C174.071405,49.9223375 173.555871,50.6945793 172.764834,51.0225658 C171.973797,51.3505523 171.063074,51.1696777 170.457409,50.5642987 C169.851744,49.9589196 169.670439,49.0482818 169.998052,48.2570903 C170.325664,47.4658989 171.097662,46.9500001 171.954,46.95 C173.122796,46.9499999 174.070448,47.8972037 174.071,49.066 Z" id="Path_72"></path>
                    <path d="M15.958,58.864 C15.9584045,59.7203375 15.4428706,60.4925793 14.651834,60.8205658 C13.8607974,61.1485523 12.950074,60.9676777 12.3444089,60.3622987 C11.7387437,59.7569196 11.5574388,58.8462818 11.8850515,58.0550903 C12.2126642,57.2638989 12.9846624,56.7480001 13.841,56.748 C15.0097964,56.7479999 15.9574479,57.6952037 15.958,58.864 Z" id="Path_73"></path>
                    <path d="M40.22,58.864 C40.2204045,59.7204284 39.7047623,60.4927335 38.9136029,60.8206614 C38.1224435,61.1485892 37.2116416,60.9675312 36.6060552,60.3619448 C36.0004688,59.7563584 35.8194108,58.8455565 36.1473386,58.0543971 C36.4752665,57.2632377 37.2475716,56.7475955 38.104,56.748 C39.2726345,56.748 40.22,57.6953655 40.22,58.864 Z" id="Path_74"></path>
                    <path d="M64.483,58.864 C64.4834045,59.7203375 63.9678706,60.4925793 63.176834,60.8205658 C62.3857974,61.1485523 61.475074,60.9676777 60.8694089,60.3622987 C60.2637437,59.7569196 60.0824388,58.8462818 60.4100515,58.0550903 C60.7376642,57.2638989 61.5096624,56.7480001 62.366,56.748 C63.5347964,56.7479999 64.4824479,57.6952037 64.483,58.864 Z" id="Path_75"></path>
                    <path d="M88.745,58.864 C88.7454045,59.7203375 88.2298706,60.4925793 87.438834,60.8205658 C86.6477974,61.1485523 85.737074,60.9676777 85.1314089,60.3622987 C84.5257437,59.7569196 84.3444388,58.8462818 84.6720515,58.0550903 C84.9996642,57.2638989 85.7716624,56.7480001 86.628,56.748 C87.7967964,56.7479999 88.7444479,57.6952037 88.745,58.864 Z" id="Path_76"></path>
                    <path d="M113.008,58.864 C113.008405,59.7203375 112.492871,60.4925793 111.701834,60.8205658 C110.910797,61.1485523 110.000074,60.9676777 109.394409,60.3622987 C108.788744,59.7569196 108.607439,58.8462818 108.935052,58.0550903 C109.262664,57.2638989 110.034662,56.7480001 110.891,56.748 C112.059796,56.7479999 113.007448,57.6952037 113.008,58.864 Z" id="Path_77"></path>
                    <path d="M137.27,58.864 C137.270405,59.7203375 136.754871,60.4925793 135.963834,60.8205658 C135.172797,61.1485523 134.262074,60.9676777 133.656409,60.3622987 C133.050744,59.7569196 132.869439,58.8462818 133.197052,58.0550903 C133.524664,57.2638989 134.296662,56.7480001 135.153,56.748 C136.321796,56.7479999 137.269448,57.6952037 137.27,58.864 Z" id="Path_78"></path>
                    <path d="M161.532,58.864 C161.532405,59.7203375 161.016871,60.4925793 160.225834,60.8205658 C159.434797,61.1485523 158.524074,60.9676777 157.918409,60.3622987 C157.312744,59.7569196 157.131439,58.8462818 157.459052,58.0550903 C157.786664,57.2638989 158.558662,56.7480001 159.415,56.748 C159.976371,56.7477347 160.514841,56.9705527 160.911884,57.3674084 C161.308928,57.7642641 161.532,58.3026286 161.532,58.864 Z" id="Path_79"></path>
                    <path d="M185.794,58.864 C185.794405,59.7203375 185.278871,60.4925793 184.487834,60.8205658 C183.696797,61.1485523 182.786074,60.9676777 182.180409,60.3622987 C181.574744,59.7569196 181.393439,58.8462818 181.721052,58.0550903 C182.048664,57.2638989 182.820662,56.7480001 183.677,56.748 C184.238371,56.7477347 184.776841,56.9705527 185.173884,57.3674084 C185.570928,57.7642641 185.794,58.3026286 185.794,58.864 Z" id="Path_80"></path>
                    <path d="M4.234,67.984 C4.234,69.1531868 3.28618682,70.101 2.117,70.101 C0.947813185,70.101 0,69.1531868 0,67.984 C0,66.8148132 0.947813185,65.867 2.117,65.867 C3.28618682,65.867 4.234,66.8148132 4.234,67.984 Z" id="Path_81"></path>
                    <path d="M28.495,67.984 C28.4949999,68.8403376 27.9791011,69.6123358 27.1879097,69.9399485 C26.3967182,70.2675612 25.4860804,70.0862563 24.8807013,69.4805911 C24.2753223,68.874926 24.0944477,67.9642026 24.4224342,67.173166 C24.7504207,66.3821294 25.5226625,65.8665955 26.379,65.867 C27.5477963,65.8675521 28.4950001,66.8152036 28.495,67.984 Z" id="Path_82"></path>
                    <path d="M52.759,67.984 C52.759,68.8402466 52.2432095,69.6121816 51.4521408,69.939853 C50.6610721,70.2675243 49.7505127,70.0864028 49.1450549,69.4809451 C48.5395972,68.8754873 48.3584757,67.9649279 48.686147,67.1738592 C49.0138184,66.3827905 49.7857534,65.867 50.642,65.867 C51.8111868,65.867 52.759,66.8148132 52.759,67.984 Z" id="Path_83"></path>
                    <path d="M77.021,67.984 C77.021,68.8402466 76.5052095,69.6121816 75.7141408,69.939853 C74.9230721,70.2675243 74.0125127,70.0864028 73.4070549,69.4809451 C72.8015972,68.8754873 72.6204757,67.9649279 72.948147,67.1738592 C73.2758184,66.3827905 74.0477534,65.867 74.904,65.867 C76.0731868,65.867 77.021,66.8148132 77.021,67.984 Z" id="Path_84"></path>
                    <path d="M101.283,67.984 C101.283,69.1531868 100.335187,70.101 99.166,70.101 C97.9968132,70.101 97.049,69.1531868 97.049,67.984 C97.049,66.8148132 97.9968132,65.867 99.166,65.867 C100.335187,65.867 101.283,66.8148132 101.283,67.984 Z" id="Path_85"></path>
                    <path d="M125.545,67.984 C125.545,68.8403376 125.029101,69.6123358 124.23791,69.9399485 C123.446718,70.2675612 122.53608,70.0862563 121.930701,69.4805911 C121.325322,68.874926 121.144448,67.9642026 121.472434,67.173166 C121.800421,66.3821294 122.572663,65.8665955 123.429,65.867 C124.597796,65.8675521 125.545,66.8152036 125.545,67.984 Z" id="Path_86"></path>
                    <path d="M149.807,67.984 C149.807,68.8403376 149.291101,69.6123358 148.49991,69.9399485 C147.708718,70.2675612 146.79808,70.0862563 146.192701,69.4805911 C145.587322,68.874926 145.406448,67.9642026 145.734434,67.173166 C146.062421,66.3821294 146.834663,65.8665955 147.691,65.867 C148.859796,65.8675521 149.807,66.8152036 149.807,67.984 Z" id="Path_87"></path>
                    <path d="M174.071,67.984 C174.071,69.1531868 173.123187,70.101 171.954,70.101 C170.784813,70.101 169.837,69.1531868 169.837,67.984 C169.837,66.8148132 170.784813,65.867 171.954,65.867 C173.123187,65.867 174.071,66.8148132 174.071,67.984 Z" id="Path_88"></path>
                </g>
                <g id="Group_6" transform="translate(38.055000, 198.643000)">
                    <g id="Group_3" transform="translate(0.000000, 25.201000)">
                        <path d="M22.861,67.133 C22.861,67.133 31.061,38.348 24.136,25.412 C17.211,12.476 0.998,0.999 0.998,0.999 C0.998,0.999 10.836,16.667 7.557,26.323 C4.278,35.979 -2.463,58.206 7.557,67.133 L22.861,67.133 Z" id="Path_89" fill="#1054DD"></path>
                        <path d="M13.148,18.332 C14.4539432,22.212177 15.336735,26.2221241 15.781,30.292 C16.2855104,34.3386421 16.3860057,38.4254517 16.081,42.492 C15.805,46.54 14.771,50.522 14.381,54.647 C14.181,56.698 14.014,58.759 13.99,60.829 C13.978,61.863 14.012,62.902 14.085,63.937 C14.1230916,64.9909803 14.36665,66.0273774 14.802,66.988 L14.902,66.907 C14.6591884,65.9311516 14.5801128,64.9217552 14.668,63.92 C14.704,62.904 14.768,61.89 14.88,60.876 C15.09,58.85 15.318,56.823 15.648,54.806 L16.526,48.739 L16.893,45.654 C16.993,44.622 17.033,43.587 17.105,42.554 C17.2871506,38.423437 17.0573491,34.2850018 16.419,30.2 C15.8027506,26.1245177 14.7476177,22.1276195 13.272,18.279 L13.148,18.332 Z" id="Path_90" fill="#FFFFFF"></path>
                    </g>
                    <g id="Group_4" transform="translate(19.239000, 0.000000)">
                        <path d="M5.659,92.335 C5.659,92.335 -5.787,52.145 3.878,34.085 C13.543,16.025 36.178,-2.84217094e-14 36.178,-2.84217094e-14 C36.178,-2.84217094e-14 22.442,21.876 27.021,35.357 C31.6,48.838 41.011,79.871 27.021,92.335 L5.659,92.335 Z" id="Path_91" fill="#2568EF"></path>
                        <path d="M19.219,24.198 C17.3957418,29.6160156 16.1632552,35.2151797 15.543,40.898 C14.8378661,46.5500046 14.6978406,52.2582196 15.125,57.938 C15.51,63.59 16.954,69.149 17.503,74.909 C17.784,77.773 18.015,80.651 18.049,83.54 C18.067,84.984 18.018,86.434 17.918,87.879 C17.8644701,89.3501441 17.5248082,90.796764 16.918,92.138 L16.78,92.026 C17.1180693,90.6635204 17.2285591,89.2545224 17.107,87.856 C17.056,86.438 16.97,85.021 16.807,83.605 C16.513,80.776 16.196,77.947 15.734,75.13 L14.519,66.657 L14.007,62.35 C13.872,60.91 13.807,59.463 13.707,58.024 C13.4521594,52.2568182 13.7727437,46.4785947 14.664,40.775 C15.5252825,35.0853335 16.9984901,29.5053166 19.058,24.132 L19.219,24.198 Z" id="Path_92" fill="#FFFFFF"></path>
                    </g>
                    <g id="Group_5" transform="translate(8.812000, 77.449000)" fill="#261910">
                        <path d="M17.153,15.799 C17.153,15.799 28.808,1.099 23.488,0.09 C18.168,-0.919 16.394,6.678 17.153,15.799 Z" id="Path_93"></path>
                        <path d="M17.153,15.799 C17.153,15.799 9.806,-3.964 1.698,1.099 C-6.41,6.162 17.153,15.799 17.153,15.799 Z" id="Path_94"></path>
                        <path d="M17.153,15.8 C17.153,15.8 44.264,12.506 37.423,8.2 C30.582,3.894 17.153,15.8 17.153,15.8 Z" id="Path_95"></path>
                    </g>
                </g>
            </g>
            <g id="Group_11" transform="translate(178.167000, 4.810000)">
                <g id="Group_10">
                    <g id="Group_8" transform="translate(37.086000, 6.370000)" fill="#261910">
                        <path d="M99.445,9.491 C99.445,14.732 77.184,18.981 49.723,18.981 C22.262,18.981 0,14.732 0,9.491 C0,4.25 22.262,0 49.723,0 C77.184,0 99.445,4.249 99.445,9.491 Z" id="Path_96"></path>
                    </g>
                    <path d="M145.642,0 L19.166,0 C8.59539352,0.0301960562 0.0329540603,8.59040176 0,19.161 L0,264.549 C0.0297103851,275.118517 8.5964579,283.676325 19.166,283.695 L94.327,283.695 C114.838,283.695 128.456,277.809 149.38,270.178 C154.534,268.301333 159.676667,266.536333 164.808,264.883 L164.808,19.161 C164.777231,8.58949278 156.213515,0.0280110656 145.642,0 Z M48.56,10.692 L116.255,10.692 C118.740281,10.692 120.755,12.7067186 120.755,15.192 C120.755,17.6772814 118.740281,19.692 116.255,19.692 L48.56,19.692 C47.3651403,19.6941242 46.2184914,19.2209563 45.3728467,18.3768123 C44.5272019,17.5326682 44.0519981,16.3868616 44.052,15.192 C44.0519981,13.9971384 44.5272019,12.8513318 45.3728467,12.0071877 C46.2184914,11.1630437 47.3651403,10.6898758 48.56,10.692 Z" id="Path_97" fill="url(#linearGradient-2)" fill-rule="nonzero"></path>
                    <path d="M151.475,33.827 L151.475,244.011 C151.46729,246.346048 149.57306,248.235361 147.238,248.237 L17.809,248.237 C15.4741033,248.235359 13.58016,246.345886 13.573,244.011 L13.573,33.827 C13.5790426,31.4898671 15.4718686,29.5965943 17.809,29.59 L147.238,29.59 C149.575295,29.5965917 151.468408,31.4897053 151.475,33.827 Z" id="Path_98" fill="#FFFFFF"></path>
                    <g id="Group_9" transform="translate(14.062000, 30.668000)" fill="url(#linearGradient-3)" opacity="0.1">
                        <path d="M135.966,1.26217745e-29 L0,215.277 C0.720687921,216.682094 2.16388127,217.568908 3.743,217.577 L133.18,217.577 C135.516906,217.570411 137.409859,215.677904 137.417,213.341 L137.417,3.16 C137.410851,1.9468866 136.882068,0.795299455 135.966,-7.10542736e-14 Z" id="Path_99"></path>
                    </g>
                </g>
            </g>
            <g id="Group_27" transform="translate(191.739000, 34.400000)">
                <g id="Group_26-Clipped">
                    <mask id="mask-5" fill="white">
                        <use xlink:href="#path-4"></use>
                    </mask>
                    <g id="SVGID"></g>
                    <g id="Group_26" mask="url(#mask-5)">
                        <g transform="translate(-25.000000, 25.000000)">
                            <g id="Group_24" transform="translate(32.016000, 19.718000)">
                                <g id="Group_13" transform="translate(14.421000, 28.328000)">
                                    <circle id="Ellipse_3" fill="url(#linearGradient-6)" transform="translate(48.429817, 49.429310) rotate(-1.416000) translate(-48.429817, -49.429310) " cx="48.4298169" cy="49.4293096" r="47.276"></circle>
                                    <g id="Group_12" transform="translate(2.098000, 4.072000)" fill="#CED8FF">
                                        <path d="M8.588,70.44 C17.0315976,83.1470114 31.3067014,90.7474939 46.563,90.659 C47.677,90.654 48.771,90.608 49.863,90.524 C51.4391897,90.3998608 53.0079361,90.1945886 54.563,89.909 C59.5920539,88.993999 64.42685,87.2229767 68.857,84.673 C81.5992635,77.3741614 90.0173342,64.3558902 91.4453467,49.7408601 C92.8733593,35.12583 87.134436,20.7243004 76.046,11.097 C76.435,19.758 75.437,36.96 64.024,52.597 C61.8135023,55.6153446 59.3336673,58.426873 56.615,60.997 C49.615,67.625 40.886,70.705 31.981,71.697 C24.1642437,72.4451784 16.2795731,72.0215033 8.588,70.44 Z" id="Path_100"></path>
                                        <path d="M56.611,61.004 C43.301,73.604 23.787,73.361 8.586,70.439 C-3.97764482,51.5491305 -0.642835218,26.2804785 16.3912505,11.2967452 C33.4253363,-3.68698809 58.9129527,-3.77147514 76.046,11.099 C76.498,21.345 75.024,43.567 56.611,61.004 Z" id="Path_101"></path>
                                    </g>
                                </g>
                                <g id="Group_23">
                                    <path d="M42.344,55.309 L53.818,55.856 C53.818,55.856 37.305,85.673 18.918,95.296 C14.1796797,97.7675426 8.78578383,98.691531 3.495,97.938 C2.17,97.789 0.683,95.808 1.055,94.525 C1.792,91.976 5.328,87.288 12.255,87.831 C12.255,87.831 8.955,85.931 9.525,84.997 C10.095,84.063 13.06,84.763 15.366,86.077 C21.458,89.535 41.577,61.859 42.344,55.309 Z" id="Path_102" fill="#F9A6A6"></path>
                                    <g id="Group_22" transform="translate(32.109000, 0.000000)">
                                        <g id="Group_14" transform="translate(5.984000, 33.768000)" fill="#FFDE6E">
                                            <path d="M13.06,2.593 C6.85,6.115 1.851,10.916 0,25.883 L10.781,32.619 C10.781,32.619 21.763,16.498 21.011,8.476 C20.067,-1.616 16.128,0.853 13.06,2.593 Z" id="Path_103"></path>
                                        </g>
                                        <g id="Group_20" transform="translate(10.080000, 0.000000)">
                                            <g id="Group_19">
                                                <g id="Group_16" transform="translate(0.000000, 26.781000)">
                                                    <g id="Group_15">
                                                        <path d="M43.639,90.089 C36.8919056,94.1058812 29.2239339,96.3172464 21.374,96.51 C21.574,94.283 21.767,92.71 21.786,92.523 L21.651,92.88 L20.283,96.526 C18.94,96.526 17.608,96.475 16.295,96.365 C10.9999399,95.9268075 5.82212189,94.567038 0.995,92.347 C4.545,82.577 8.648,72.44 10.347,68.297 C10.855,67.065 11.147,66.361 11.147,66.361 C15.691156,64.0462933 20.4460995,62.1711043 25.347,60.761 C26.368,60.479 27.408,60.218 28.447,59.996 C34.155,58.784 39.993,58.674 43.738,61.596 C45.3399165,63.034209 46.3508904,65.015889 46.575,67.157 C47.657,73.199 45.846,82.23 43.639,90.089 Z" id="Path_104" fill="#F0B41D"></path>
                                                        <path d="M44.234,42.48 L47.034,67.046 C47.034,67.046 22.781,73.406 13.354,70.346 C1.371,66.454 4.514,25.188 6.184,18.937 C7.35056573,14.9186321 9.34990896,11.1908178 12.052,7.996 L15.008,7.438 L28.282,4.944 C28.282,4.944 28.529,4.909 28.956,4.884 C33.2248118,4.57643626 37.3161658,6.64440733 39.6,10.264 C41.035,12.585 44.234,42.48 44.234,42.48 Z" id="Path_105" fill="url(#linearGradient-7)"></path>
                                                        <path d="M28.957,4.881 L27.871,7.299 C27.871,7.299 26.171,13.504 20.615,13.424 C16.427,13.359 14.832,9.324 14.832,9.324 L13.947,7.675 L15.008,7.439 L28.283,4.945 C28.283,4.945 28.527,4.904 28.957,4.881 Z" id="Path_106" fill="#FFDE6E"></path>
                                                        <path d="M14.448,0.884 L14.833,7.915 C14.833,7.915 16.424,11.954 20.616,12.015 C26.166,12.096 27.868,5.895 27.868,5.895 L29.048,-7.10542736e-15 L14.448,0.884 Z" id="Path_107" fill="#F9A6A6"></path>
                                                        <path d="M14.448,0.884 C14.448,0.884 16.913,6.078 19.912,6.384 C25.242,6.928 29.048,-7.10542736e-15 29.048,-7.10542736e-15 L14.448,0.884 Z" id="Path_108" fill="#E29191"></path>
                                                    </g>
                                                </g>
                                                <g id="Group_18" transform="translate(4.356000, 0.000000)">
                                                    <path d="M6.138,14.623 C6.1993358,14.318721 6.27813275,14.0182241 6.374,13.723 C8.545,6.553 22.239,11.533 22.239,11.533 L27.625,14.048 L27.908,14.175 C27.9876888,14.1316106 28.0698266,14.092879 28.154,14.059 C28.7688609,13.7608021 29.4739218,13.7068416 30.127,13.908 C30.7203879,14.2411003 31.0702728,14.8848885 31.027,15.564 C31.257,18.496 29.243,22.981 27.437,22.217 C27.437,22.217 25.229,28.236 22.572,29.073 C19.907,29.927 14.717,33.13 10.98,29.305 C7.402,25.65 4.456,21.296 6.138,14.623 Z" id="Path_109" fill="#F9A6A6"></path>
                                                    <g id="Group_17">
                                                        <path d="M20.269,13.822 C20.269,13.822 23.9,17.873 24.076,19.206 C24.252,20.539 24.596,16.061 25.829,15.215 C27.062,14.369 28.218,14.797 27.923,14.298 C27.628,13.799 20.269,13.822 20.269,13.822 Z" id="Path_110" fill="#261910"></path>
                                                        <path d="M2.312,14.97 C3.15,14.993 3.924,15.03 4.646,15.07 C4.71137544,14.7761213 4.79486823,14.4865683 4.896,14.203 C7.196,7.259 21.648,12.057 21.648,12.057 L27.33,14.483 L27.889,14.493 C28.5449806,14.2030198 29.2814239,14.150341 29.972,14.344 C29.93,13.111 29.506,5.703 25.483,3.618 C21.064,1.333 12.221,-1.903 7.312,6.11 C6.721,7.098 6.705,9.626 5.875,10.489 C5.045,11.352 -1.82,14.856 2.312,14.97 Z" id="Path_111" fill="#1054DD"></path>
                                                        <path d="M5.871,10.491 C7.42908255,10.3999705 8.99165468,10.4193523 10.547,10.549 C15.467,10.022 21.647,12.06 21.647,12.06 L27.329,14.486 L21.671,14.373 C21.5035736,14.6744284 21.294145,14.950524 21.049,15.193 C19.665,16.782 11.962,16.65 10.615,16.054 C10.2361857,15.90206 9.84640331,15.7790412 9.449,15.686 C9.292,15.65 9.103,15.615 8.931,15.577 C8.592,15.513 8.231,15.447 7.821,15.387 C7.597,15.356 7.359,15.328 7.121,15.294 C6.652,15.241 6.142,15.194 5.603,15.145 C5.387,15.13 5.186,15.112 4.961,15.097 C4.146,15.04 3.275,14.997 2.316,14.967 C-1.82,14.856 5.053,11.339 5.871,10.491 Z" id="Path_112" fill="#1054DD"></path>
                                                    </g>
                                                </g>
                                            </g>
                                            <path d="M21.676,119.792 C21.344,120.833 20.927,122.015 20.444,123.307 L20.283,123.307 C18.94,123.307 17.608,123.256 16.296,123.146 L19.187,106.905 L21.651,119.662 L21.676,119.792 Z" id="Path_113" fill="#231F20" opacity="0.31"></path>
                                        </g>
                                        <g id="Group_21" transform="translate(0.000000, 31.161000)">
                                            <path d="M42.344,27.595 L53.817,28.142 C53.817,28.142 37.305,57.959 18.917,67.582 C14.1790803,70.0536771 8.78556196,70.9780105 3.495,70.225 C2.17,70.076 0.683,68.094 1.055,66.812 C1.792,64.263 5.328,59.575 12.255,60.117 C12.255,60.117 8.955,58.217 9.525,57.284 C10.095,56.351 13.061,57.05 15.367,58.363 C21.458,61.821 41.577,34.145 42.344,27.595 Z" id="Path_114" fill="#F9A6A6"></path>
                                            <path d="M43.324,1.588 C43.324,1.588 38.194,15.057 40.324,29.988 L52.492,33.666 C52.492,33.666 58.87,15.233 56.044,7.687 C52.494,-1.805 43.324,1.588 43.324,1.588 Z" id="Path_115" fill="#FFDE6E"></path>
                                        </g>
                                    </g>
                                </g>
                            </g>
                            <g id="Group_25" transform="translate(0.233000, 0.838000)" opacity="0.25">
                                <polygon id="Path_116" fill="#FFFFFF" points="192.993 45.938 0 161.202 0 115.072 192.645 0"></polygon>
                                <polygon id="Path_117" fill="#FFFFFF" points="192.993 67.391 192.993 101.013 1.077 215.66 0 215.579 0 182.626"></polygon>
                            </g>
                        </g>
                    </g>
                </g>
            </g>
            <g id="Group_47" transform="translate(94.390000, 86.212000)">
                <g id="Group_33" transform="translate(9.450000, 116.944000)">
                    <g id="Group_32" transform="translate(0.110000, 0.000000)">
                        <g id="Group_29" transform="translate(48.682000, 88.937000)" fill="#F7D3A9">
                            <g id="Group_28">
                                <path d="M0,5.033 L1.667,10.284 C1.667,10.284 4.559,12.535 6.179,10.4 C7.799,8.265 9.094,6.791 9.094,6.791 L8.443,0.998 L0,5.033 Z" id="Path_118"></path>
                            </g>
                        </g>
                        <g id="Group_31" transform="translate(0.278000, 91.859000)" fill="#F7D3A9">
                            <g id="Group_30">
                                <path d="M1.834,1.118 L0.995,7.77 C0.995,7.77 3.06,10.797 5.255,9.259 C6.50906022,8.35707964 7.94081406,7.73256225 9.455,7.427 L10.287,0.999 L1.834,1.118 Z" id="Path_119"></path>
                            </g>
                        </g>
                        <path d="M5.444,1 C5.444,1 1,17.428 3.222,25.2 C5.444,32.972 5.073,66.305 5.073,66.305 L1,95.56 L10.931,95.598 C10.931,95.598 19.886,61.121 20.257,56.306 C20.628,51.491 24.119,28.747 24.119,28.747 L37.263,57.575 L48.031,95.559 C48.031,95.559 57.27,93.351 57.64,91.5 C58.01,89.649 49.94,53.641 49.94,53.641 C49.94,53.641 37.665,12.841 37.665,6.919 C37.665,0.997 36.184,0.994 36.184,0.994 L5.444,1 Z" id="Path_120" fill="#261910"></path>
                    </g>
                    <polygon id="Path_121" fill="#261910" points="1.289 97.825 10.541 97.825 13.722 102.885 30.78 109.39 1 109.39"></polygon>
                    <polygon id="Path_122" fill="#261910" points="49.416 97.281 58.116 94.134 62.828 97.811 81.082 98.127 53.082 108.255"></polygon>
                </g>
                <path d="M22.581,40.512 C23.168,40.659 30.649,43.886 28.302,46.38 C25.955,48.874 23.902,42.712 23.902,42.712 L22.581,40.512 Z" id="Path_123" fill="#EAC4A0"></path>
                <g id="Group_35" transform="translate(9.139000, 60.439000)">
                    <path d="M67.327,16.558 C67.327,16.558 81.998,14.944 84.198,14.797 C84.7861741,14.7703696 85.3379879,14.5047921 85.7257401,14.0617276 C86.1134923,13.6186631 86.3035753,13.0365133 86.252,12.45 L74.663,12.597 C74.663,12.597 74.956,7.756 72.903,9.81 C71.7963849,10.9747588 70.4429167,11.8768431 68.942,12.45 L67.327,16.558 Z" id="Path_124" fill="#F7D3A9"></path>
                    <g id="Group_34" fill="#EDE4DA">
                        <path d="M10.96,0.001 C11.1322624,-0.00742157519 11.3029561,0.0372589766 11.449,0.129 C13.988,1.715 37.377,16.279 41.083,16.687 C44.583,17.071 64.814,12.713 69.136,11.768 C69.3508015,11.7212692 69.5753708,11.7624137 69.7596524,11.8822625 C69.943934,12.0021113 70.0726104,12.1907025 70.117,12.406 L70.851,15.953 C70.9360571,16.3532952 70.7122096,16.7548535 70.327,16.893 C66.209,18.365 44.401,26.136 41.688,26.604 C38.688,27.121 3.143,15.95 0.602,10.678 C-1.907,5.471 3.79,0.383 10.96,0.001 Z" id="Path_125"></path>
                    </g>
                </g>
                <g id="Group_38" transform="translate(2.790000, 28.822000)" fill="#F7D3A9">
                    <g id="Group_37">
                        <path d="M17.901,25.084 C17.901,25.084 24.636,36.773 26.577,39.679 C26.577,39.679 14.251,39.869 9.96,36.727 L9.179,21.427 L17.901,25.084 Z" id="Path_126"></path>
                        <g id="Group_36">
                            <path d="M19.606,6.555 C19.606,6.555 26.688,20.836 25.125,25.029 C23.562,29.222 12.962,26.054 7.634,21.683 C2.306,17.312 -2.111,5.217 3.859,2.315 C9.41591257,-0.544846057 16.2363324,1.29160406 19.606,6.555 Z" id="Path_127"></path>
                        </g>
                    </g>
                </g>
                <g id="Group_43" transform="translate(8.000000, 59.959000)" fill="#FFFFFF">
                    <g id="Group_42">
                        <g id="Group_41">
                            <g id="Group_40">
                                <g id="Group_39">
                                    <path d="M40.213,60.337 C40.3724786,60.7247942 40.3789114,61.1586481 40.231,61.551 C38.238,66.932 5.512,62.294 5.512,62.294 C5.512,62.294 9.535,46.276 1.563,20.907 C-1.463,11.249 0.839,5.398 0.839,5.398 C5.515,-4.333 18.052,2.073 18.052,2.073 C24.286,3.631 28.407,15.973 28.787,17.129 C29.187,18.303 30.754,33.515 40.213,60.337 Z" id="Path_128"></path>
                                </g>
                            </g>
                        </g>
                    </g>
                </g>
                <g id="Group_46" transform="translate(36.755000, 0.000000)">
                    <g id="Group_45" transform="translate(0.000000, 2.072000)">
                        <g id="Group_44">
                            <path d="M64.057,62.851 C64.057,65.1773871 63.1327779,67.4084768 61.48768,69.0533872 C59.8425822,70.6982975 57.6113871,71.6222652 55.285,71.622 L8.596,71.615 C4.40792902,71.6161055 1.01131233,68.2230698 1.008,64.035 L1.016,26.853 L1.016,24.253 L64.058,24.253 L64.057,62.851 Z" id="Path_129" fill="#2568EF"></path>
                            <path d="M64.057,15.675 L64.057,8.775 C64.057,3.93130096 60.130699,0.00455224023 55.287,0.004 L8.595,0.002 C6.58426292,0.000140769841 4.65533145,0.798011233 3.23343123,2.21972387 C1.81153101,3.64143651 1.01340606,5.57026269 1.015,7.581 L1.015,15.681 L0.999,15.681 L0.999,24.263 L64.056,24.263 L64.056,15.675 L64.057,15.675 Z" id="Path_130" fill="#1054DD"></path>
                        </g>
                        <rect id="Rectangle_9" fill="#FFFFFF" opacity="0.45" x="1" y="20.132" width="63.057" height="8.581"></rect>
                    </g>
                    <polygon id="Path_131" fill="#FFFFFF" opacity="0.45" points="38.17 38.725 36.936 38.137 35.996 38.725 33.41 38.725 30.71 38.255 29.77 38.725 28.653 38.725 28.653 0.998 38.172 0.998"></polygon>
                </g>
                <path d="M89.379,52.395 C89.379,52.395 97.228,51.661 97.961,50.048 C98.694,48.435 100.235,42.126 101.116,45.207 C101.658834,46.8406966 101.734682,48.5935188 101.335,50.268 C101.335,50.268 106.396,49.314 105.076,54.742 C103.756,60.17 100.676,58.849 100.676,58.849 L92.461,58.703 L89.379,52.395 Z" id="Path_132" fill="#F7D3A9"></path>
                <path d="M20.947,77.676 L62.84,71.515 L93.14,60.072 L90.89,51.563 L55.526,60.663 C55.526,60.663 23.337,57.394 13.137,60.272 C8.547,61.564 4.079,65.94 20.947,77.676 Z" id="Path_133" fill="#FFFFFF"></path>
                <path d="M18.473,36.989 C18.473,36.989 26.541,35.082 24.634,30.681 C22.727,26.28 14.952,20.118 14.071,25.84 C13.19,31.562 1.454,27.894 1.014,36.696 C0.677,43.437 6.149,55.034 11.87,53.42 C17.591,51.806 16.124,48.432 14.804,46.82 C13.484,45.208 9.67,36.844 12.163,38.605 C14.656,40.366 17.591,43.886 17.591,39.925 C17.591,35.964 18.473,36.989 18.473,36.989 Z" id="Path_134" fill="#261910"></path>
                <polygon id="Path_135" fill="#EAC4A0" points="21.7 55.549 15.832 53.568 22.983 57.877"></polygon>
                <path d="M36.028,75.329 L27.617,75.916 L44.831,110.929 C44.831,110.929 36.419,79.241 36.028,75.329 Z" id="Path_136" fill="#EDE4DA"></path>
            </g>
        </g>
    </g>
</svg>