<?xml version="1.0" encoding="UTF-8"?>
<svg width="375px" height="356px" viewBox="0 0 375 356" version="1.1" xmlns="http://www.w3.org/2000/svg" xmlns:xlink="http://www.w3.org/1999/xlink">
    <!-- Generator: Sketch 52.6 (67491) - http://www.bohemiancoding.com/sketch -->
    <title>slide_3</title>
    <desc>Created with Sketch.</desc>
    <defs>
        <linearGradient x1="0%" y1="50%" x2="100%" y2="50%" id="linearGradient-1">
            <stop stop-color="#2568EF" stop-opacity="0.2" offset="0%"></stop>
            <stop stop-color="#2568EF" stop-opacity="0.302" offset="100%"></stop>
        </linearGradient>
        <linearGradient x1="0%" y1="50%" x2="100%" y2="50%" id="linearGradient-2">
            <stop stop-color="#2568EF" offset="0%"></stop>
            <stop stop-color="#2568EF" offset="19.1%"></stop>
            <stop stop-color="#2568EF" offset="50.3%"></stop>
            <stop stop-color="#2568EF" offset="100%"></stop>
        </linearGradient>
    </defs>
    <g id="Page-1" stroke="none" stroke-width="1" fill="none" fill-rule="evenodd">
        <g id="slide_3" transform="translate(-1495.000000, -1439.000000)">
            <g id="Group_102" transform="translate(1495.000000, 1439.000000)" fill="url(#linearGradient-1)">
                <g id="Group_101">
                    <path d="M296.209,250.257 C288.645,255.735 169.781,339.913 0,356 L0,83.745 C18.5087729,81.0726882 36.8238641,77.1978216 54.829,72.145 C125.302,52.454 170.498,21.129 170.92,20.82 C225.937,-19.024 298.581,0.042 333.177,63.395 C367.773,126.748 351.226,210.413 296.209,250.257 Z" id="Path_298"></path>
                </g>
            </g>
            <g id="Group_103" transform="translate(1556.041000, 1486.964000)" fill="#FFFFFF">
                <path d="M63.682,14.714 C62.6039402,14.714 61.73,13.8400598 61.73,12.762 C61.73,11.6839402 62.6039402,10.81 63.682,10.81 C64.7600598,10.81 65.634,11.6839402 65.634,12.762 C65.634,13.8400598 64.7600598,14.714 63.682,14.714 Z" id="Path_299"></path>
                <path d="M63.682,37.085 C62.6039402,37.085 61.73,36.2110598 61.73,35.133 C61.73,34.0549402 62.6039402,33.181 63.682,33.181 C64.7600598,33.181 65.634,34.0549402 65.634,35.133 C65.634,36.2110598 64.7600598,37.085 63.682,37.085 Z" id="Path_300"></path>
                <path d="M63.682,59.454 C62.6039402,59.454 61.73,58.5800598 61.73,57.502 C61.73,56.4239402 62.6039402,55.55 63.682,55.55 C64.7600598,55.55 65.634,56.4239402 65.634,57.502 C65.634,58.5800598 64.7600598,59.454 63.682,59.454 Z" id="Path_301"></path>
                <path d="M63.682,81.825 C62.6039402,81.825 61.73,80.9510598 61.73,79.873 C61.73,78.7949402 62.6039402,77.921 63.682,77.921 C64.7600598,77.921 65.634,78.7949402 65.634,79.873 C65.634,80.9510598 64.7600598,81.825 63.682,81.825 Z" id="Path_302"></path>
                <path d="M63.682,104.194 C62.6039402,104.194 61.73,103.32006 61.73,102.242 C61.73,101.16394 62.6039402,100.29 63.682,100.29 C64.7600598,100.29 65.634,101.16394 65.634,102.242 C65.634,103.32006 64.7600598,104.194 63.682,104.194 Z" id="Path_303"></path>
                <path d="M63.682,126.565 C62.6039402,126.565 61.73,125.69106 61.73,124.613 C61.73,123.53494 62.6039402,122.661 63.682,122.661 C64.7600598,122.661 65.634,123.53494 65.634,124.613 C65.634,125.69106 64.7600598,126.565 63.682,126.565 Z" id="Path_304"></path>
                <path d="M63.682,148.936 C62.6039402,148.936 61.73,148.06206 61.73,146.984 C61.73,145.90594 62.6039402,145.032 63.682,145.032 C64.7600598,145.032 65.634,145.90594 65.634,146.984 C65.634,148.06206 64.7600598,148.936 63.682,148.936 Z" id="Path_305"></path>
                <path d="M63.682,171.305 C62.6039402,171.305 61.73,170.43106 61.73,169.353 C61.73,168.27494 62.6039402,167.401 63.682,167.401 C64.7600598,167.401 65.634,168.27494 65.634,169.353 C65.634,170.43106 64.7600598,171.305 63.682,171.305 Z" id="Path_306"></path>
                <path d="M55.274,3.907 C54.4843988,3.90740451 53.7723219,3.43207153 53.4698743,2.70269123 C53.1674267,1.97331093 53.3341846,1.13355696 53.892374,0.575081509 C54.4505633,0.0166060545 55.2902317,-0.150582146 56.0197669,0.151491679 C56.7493021,0.453565504 57.2249999,1.16539872 57.225,1.955 C57.2250001,3.03266943 56.3516693,3.90644792 55.274,3.907 Z" id="Path_307"></path>
                <path d="M55.274,26.274 C54.4843988,26.2744045 53.7723219,25.7990715 53.4698743,25.0696912 C53.1674267,24.3403109 53.3341846,23.500557 53.892374,22.9420815 C54.4505633,22.3836061 55.2902317,22.2164179 56.0197669,22.5184917 C56.7493021,22.8205655 57.2249999,23.5323987 57.225,24.322 C57.2250001,25.3996694 56.3516693,26.2734479 55.274,26.274 Z" id="Path_308"></path>
                <path d="M55.274,48.644 C54.1966227,48.6439999 53.3231843,47.7707105 53.3230003,46.6933332 C53.3228163,45.6159558 54.1959564,44.7423682 55.2733337,44.7420001 C56.350711,44.741632 57.2244478,45.6146228 57.225,46.692 C57.2252653,47.2096106 57.0198312,47.706112 56.653919,48.0722118 C56.2880068,48.4383116 55.7916107,48.6440001 55.274,48.644 Z" id="Path_309"></path>
                <path d="M55.274,71.015 C54.4843988,71.0154045 53.7723219,70.5400715 53.4698743,69.8106912 C53.1674267,69.0813109 53.3341846,68.241557 53.892374,67.6830815 C54.4505633,67.1246061 55.2902317,66.9574179 56.0197669,67.2594917 C56.7493021,67.5615655 57.2249999,68.2733987 57.225,69.063 C57.2250001,70.1406694 56.3516693,71.0144479 55.274,71.015 Z" id="Path_310"></path>
                <path d="M55.274,93.385 C54.4843988,93.3854045 53.7723219,92.9100715 53.4698743,92.1806912 C53.1674267,91.4513109 53.3341846,90.611557 53.892374,90.0530815 C54.4505633,89.4946061 55.2902317,89.3274179 56.0197669,89.6294917 C56.7493021,89.9315655 57.2249999,90.6433987 57.225,91.433 C57.2250001,92.5106694 56.3516693,93.3844479 55.274,93.385 Z" id="Path_311"></path>
                <path d="M55.274,115.755 C54.4843988,115.755405 53.7723219,115.280072 53.4698743,114.550691 C53.1674267,113.821311 53.3341846,112.981557 53.892374,112.423082 C54.4505633,111.864606 55.2902317,111.697418 56.0197669,111.999492 C56.7493021,112.301566 57.2249999,113.013399 57.225,113.803 C57.2250001,114.880669 56.3516693,115.754448 55.274,115.755 Z" id="Path_312"></path>
                <path d="M55.274,138.126 C54.4843988,138.126405 53.7723219,137.651072 53.4698743,136.921691 C53.1674267,136.192311 53.3341846,135.352557 53.892374,134.794082 C54.4505633,134.235606 55.2902317,134.068418 56.0197669,134.370492 C56.7493021,134.672566 57.2249999,135.384399 57.225,136.174 C57.2250001,137.251669 56.3516693,138.125448 55.274,138.126 Z" id="Path_313"></path>
                <path d="M55.274,160.496 C54.4843988,160.496405 53.7723219,160.021072 53.4698743,159.291691 C53.1674267,158.562311 53.3341846,157.722557 53.892374,157.164082 C54.4505633,156.605606 55.2902317,156.438418 56.0197669,156.740492 C56.7493021,157.042566 57.2249999,157.754399 57.225,158.544 C57.2250001,159.621669 56.3516693,160.495448 55.274,160.496 Z" id="Path_314"></path>
                <path d="M46.241,14.714 C45.1629402,14.714 44.289,13.8400598 44.289,12.762 C44.289,11.6839402 45.1629402,10.81 46.241,10.81 C47.3190598,10.81 48.193,11.6839402 48.193,12.762 C48.193,13.8400598 47.3190598,14.714 46.241,14.714 Z" id="Path_315"></path>
                <path d="M46.241,37.085 C45.1629402,37.085 44.289,36.2110598 44.289,35.133 C44.289,34.0549402 45.1629402,33.181 46.241,33.181 C47.3190598,33.181 48.193,34.0549402 48.193,35.133 C48.193,35.6507026 47.9873434,36.1472014 47.6212724,36.5132724 C47.2552014,36.8793434 46.7587026,37.085 46.241,37.085 Z" id="Path_316"></path>
                <path d="M46.241,59.454 C45.1629402,59.454 44.289,58.5800598 44.289,57.502 C44.289,56.4239402 45.1629402,55.55 46.241,55.55 C47.3190598,55.55 48.193,56.4239402 48.193,57.502 C48.193,58.0197026 47.9873434,58.5162014 47.6212724,58.8822724 C47.2552014,59.2483434 46.7587026,59.454 46.241,59.454 Z" id="Path_317"></path>
                <path d="M46.241,81.825 C45.1629402,81.825 44.289,80.9510598 44.289,79.873 C44.289,78.7949402 45.1629402,77.921 46.241,77.921 C47.3190598,77.921 48.193,78.7949402 48.193,79.873 C48.193,80.3907026 47.9873434,80.8872014 47.6212724,81.2532724 C47.2552014,81.6193434 46.7587026,81.825 46.241,81.825 Z" id="Path_318"></path>
                <path d="M46.241,104.194 C45.1629402,104.194 44.289,103.32006 44.289,102.242 C44.289,101.16394 45.1629402,100.29 46.241,100.29 C47.3190598,100.29 48.193,101.16394 48.193,102.242 C48.193,102.759703 47.9873434,103.256201 47.6212724,103.622272 C47.2552014,103.988343 46.7587026,104.194 46.241,104.194 Z" id="Path_319"></path>
                <path d="M46.241,126.565 C45.1629402,126.565 44.289,125.69106 44.289,124.613 C44.289,123.53494 45.1629402,122.661 46.241,122.661 C47.3190598,122.661 48.193,123.53494 48.193,124.613 C48.193,125.69106 47.3190598,126.565 46.241,126.565 Z" id="Path_320"></path>
                <path d="M46.241,148.936 C45.1629402,148.936 44.289,148.06206 44.289,146.984 C44.289,145.90594 45.1629402,145.032 46.241,145.032 C47.3190598,145.032 48.193,145.90594 48.193,146.984 C48.193,148.06206 47.3190598,148.936 46.241,148.936 Z" id="Path_321"></path>
                <path d="M46.241,171.305 C45.1629402,171.305 44.289,170.43106 44.289,169.353 C44.289,168.27494 45.1629402,167.401 46.241,167.401 C47.3190598,167.401 48.193,168.27494 48.193,169.353 C48.193,170.43106 47.3190598,171.305 46.241,171.305 Z" id="Path_322"></path>
                <path d="M37.833,3.907 C36.7549402,3.907 35.881,3.03305983 35.881,1.955 C35.881,0.876940168 36.7549402,0.003 37.833,0.003 C38.9110598,0.003 39.785,0.876940168 39.785,1.955 C39.785,2.47270259 39.5793434,2.96920143 39.2132724,3.33527244 C38.8472014,3.70134345 38.3507026,3.907 37.833,3.907 Z" id="Path_323"></path>
                <path d="M37.833,26.274 C36.7549402,26.274 35.881,25.4000598 35.881,24.322 C35.881,23.2439402 36.7549402,22.37 37.833,22.37 C38.9110598,22.37 39.785,23.2439402 39.785,24.322 C39.785,25.4000598 38.9110598,26.274 37.833,26.274 Z" id="Path_324"></path>
                <path d="M37.833,48.644 C36.755753,48.6434477 35.8828162,47.769914 35.8830003,46.6926668 C35.8831844,45.6154197 36.7564197,44.7421844 37.8336668,44.7420003 C38.910914,44.7418162 39.7844477,45.614753 39.785,46.692 C39.785,47.7700598 38.9110598,48.644 37.833,48.644 Z" id="Path_325"></path>
                <path d="M37.833,71.015 C36.7549402,71.015 35.881,70.1410598 35.881,69.063 C35.881,67.9849402 36.7549402,67.111 37.833,67.111 C38.9110598,67.111 39.785,67.9849402 39.785,69.063 C39.785,70.1410598 38.9110598,71.015 37.833,71.015 Z" id="Path_326"></path>
                <path d="M37.833,93.385 C36.7549402,93.385 35.881,92.5110598 35.881,91.433 C35.881,90.3549402 36.7549402,89.481 37.833,89.481 C38.9110598,89.481 39.785,90.3549402 39.785,91.433 C39.785,92.5110598 38.9110598,93.385 37.833,93.385 Z" id="Path_327"></path>
                <path d="M37.833,115.755 C36.7549402,115.755 35.881,114.88106 35.881,113.803 C35.881,112.72494 36.7549402,111.851 37.833,111.851 C38.9110598,111.851 39.785,112.72494 39.785,113.803 C39.785,114.320703 39.5793434,114.817201 39.2132724,115.183272 C38.8472014,115.549343 38.3507026,115.755 37.833,115.755 Z" id="Path_328"></path>
                <path d="M37.833,138.126 C36.7549402,138.126 35.881,137.25206 35.881,136.174 C35.881,135.09594 36.7549402,134.222 37.833,134.222 C38.9110598,134.222 39.785,135.09594 39.785,136.174 C39.785,137.25206 38.9110598,138.126 37.833,138.126 Z" id="Path_329"></path>
                <path d="M37.833,160.496 C36.7549402,160.496 35.881,159.62206 35.881,158.544 C35.881,157.46594 36.7549402,156.592 37.833,156.592 C38.9110598,156.592 39.785,157.46594 39.785,158.544 C39.785,159.061703 39.5793434,159.558201 39.2132724,159.924272 C38.8472014,160.290343 38.3507026,160.496 37.833,160.496 Z" id="Path_330"></path>
                <path d="M28.799,14.714 C27.7209402,14.714 26.847,13.8400598 26.847,12.762 C26.847,11.6839402 27.7209402,10.81 28.799,10.81 C29.8770598,10.81 30.751,11.6839402 30.751,12.762 C30.7512655,13.2797839 30.5456942,13.776437 30.1795656,14.1425656 C29.813437,14.5086942 29.3167839,14.7142655 28.799,14.714 Z" id="Path_331"></path>
                <path d="M28.799,37.085 C27.7209402,37.085 26.847,36.2110598 26.847,35.133 C26.847,34.0549402 27.7209402,33.181 28.799,33.181 C29.8770598,33.181 30.751,34.0549402 30.751,35.133 C30.7512655,35.6507839 30.5456942,36.147437 30.1795656,36.5135656 C29.813437,36.8796942 29.3167839,37.0852655 28.799,37.085 Z" id="Path_332"></path>
                <path d="M28.799,59.454 C27.7209402,59.454 26.847,58.5800598 26.847,57.502 C26.847,56.4239402 27.7209402,55.55 28.799,55.55 C29.8770598,55.55 30.751,56.4239402 30.751,57.502 C30.751,58.0197026 30.5453434,58.5162014 30.1792724,58.8822724 C29.8132014,59.2483434 29.3167026,59.454 28.799,59.454 Z" id="Path_333"></path>
                <path d="M28.799,81.825 C27.7209402,81.825 26.847,80.9510598 26.847,79.873 C26.847,78.7949402 27.7209402,77.921 28.799,77.921 C29.8770598,77.921 30.751,78.7949402 30.751,79.873 C30.7512655,80.3907839 30.5456942,80.887437 30.1795656,81.2535656 C29.813437,81.6196942 29.3167839,81.8252655 28.799,81.825 Z" id="Path_334"></path>
                <path d="M28.799,104.194 C27.7209402,104.194 26.847,103.32006 26.847,102.242 C26.847,101.16394 27.7209402,100.29 28.799,100.29 C29.8770598,100.29 30.751,101.16394 30.751,102.242 C30.7512655,102.759784 30.5456942,103.256437 30.1795656,103.622566 C29.813437,103.988694 29.3167839,104.194265 28.799,104.194 Z" id="Path_335"></path>
                <path d="M28.799,126.565 C27.7209402,126.565 26.847,125.69106 26.847,124.613 C26.847,123.53494 27.7209402,122.661 28.799,122.661 C29.8770598,122.661 30.751,123.53494 30.751,124.613 C30.751,125.69106 29.8770598,126.565 28.799,126.565 Z" id="Path_336"></path>
                <path d="M28.799,148.936 C27.7209402,148.936 26.847,148.06206 26.847,146.984 C26.847,145.90594 27.7209402,145.032 28.799,145.032 C29.8770598,145.032 30.751,145.90594 30.751,146.984 C30.7512655,147.501784 30.5456942,147.998437 30.1795656,148.364566 C29.813437,148.730694 29.3167839,148.936265 28.799,148.936 Z" id="Path_337"></path>
                <path d="M28.799,171.305 C27.7209402,171.305 26.847,170.43106 26.847,169.353 C26.847,168.27494 27.7209402,167.401 28.799,167.401 C29.8770598,167.401 30.751,168.27494 30.751,169.353 C30.7512655,169.870784 30.5456942,170.367437 30.1795656,170.733566 C29.813437,171.099694 29.3167839,171.305265 28.799,171.305 Z" id="Path_338"></path>
                <path d="M20.392,3.907 C19.3139402,3.907 18.44,3.03305983 18.44,1.955 C18.44,0.876940168 19.3139402,0.003 20.392,0.003 C21.4700598,0.003 22.344,0.876940168 22.344,1.955 C22.344,2.47270259 22.1383434,2.96920143 21.7722724,3.33527244 C21.4062014,3.70134345 20.9097026,3.907 20.392,3.907 Z" id="Path_339"></path>
                <path d="M20.392,26.274 C19.3139402,26.274 18.44,25.4000598 18.44,24.322 C18.44,23.2439402 19.3139402,22.37 20.392,22.37 C21.4700598,22.37 22.344,23.2439402 22.344,24.322 C22.344,25.4000598 21.4700598,26.274 20.392,26.274 Z" id="Path_340"></path>
                <path d="M20.392,48.644 C19.314753,48.6434477 18.4418162,47.769914 18.4420003,46.6926668 C18.4421844,45.6154197 19.3154197,44.7421844 20.3926668,44.7420003 C21.469914,44.7418162 22.3434477,45.614753 22.344,46.692 C22.3442655,47.2097839 22.1386942,47.706437 21.7725656,48.0725656 C21.406437,48.4386942 20.9097839,48.6442655 20.392,48.644 Z" id="Path_341"></path>
                <path d="M20.392,71.015 C19.3139402,71.015 18.44,70.1410598 18.44,69.063 C18.44,67.9849402 19.3139402,67.111 20.392,67.111 C21.4700598,67.111 22.344,67.9849402 22.344,69.063 C22.344,70.1410598 21.4700598,71.015 20.392,71.015 Z" id="Path_342"></path>
                <path d="M20.392,93.385 C19.3139402,93.385 18.44,92.5110598 18.44,91.433 C18.44,90.3549402 19.3139402,89.481 20.392,89.481 C21.4700598,89.481 22.344,90.3549402 22.344,91.433 C22.344,92.5110598 21.4700598,93.385 20.392,93.385 Z" id="Path_343"></path>
                <path d="M20.392,115.755 C19.3139402,115.755 18.44,114.88106 18.44,113.803 C18.44,112.72494 19.3139402,111.851 20.392,111.851 C21.4700598,111.851 22.344,112.72494 22.344,113.803 C22.344,114.320703 22.1383434,114.817201 21.7722724,115.183272 C21.4062014,115.549343 20.9097026,115.755 20.392,115.755 Z" id="Path_344"></path>
                <path d="M20.392,138.126 C19.3139402,138.126 18.44,137.25206 18.44,136.174 C18.44,135.09594 19.3139402,134.222 20.392,134.222 C21.4700598,134.222 22.344,135.09594 22.344,136.174 C22.344,137.25206 21.4700598,138.126 20.392,138.126 Z" id="Path_345"></path>
                <path d="M20.392,160.496 C19.3139402,160.496 18.44,159.62206 18.44,158.544 C18.44,157.46594 19.3139402,156.592 20.392,156.592 C21.4700598,156.592 22.344,157.46594 22.344,158.544 C22.344,159.061703 22.1383434,159.558201 21.7722724,159.924272 C21.4062014,160.290343 20.9097026,160.496 20.392,160.496 Z" id="Path_346"></path>
                <path d="M11.359,14.714 C10.5693988,14.7144045 9.85732194,14.2390715 9.55487432,13.5096912 C9.2524267,12.7803109 9.41918461,11.940557 9.97737396,11.3820815 C10.5355633,10.8236061 11.3752317,10.6564179 12.1047669,10.9584917 C12.8343021,11.2605655 13.3099999,11.9723987 13.31,12.762 C13.3100001,13.8396694 12.4366693,14.7134479 11.359,14.714 Z" id="Path_347"></path>
                <path d="M11.359,37.085 C10.5693988,37.0854045 9.85732194,36.6100715 9.55487432,35.8806912 C9.2524267,35.1513109 9.41918461,34.311557 9.97737396,33.7530815 C10.5355633,33.1946061 11.3752317,33.0274179 12.1047669,33.3294917 C12.8343021,33.6315655 13.3099999,34.3433987 13.31,35.133 C13.3100001,36.2106694 12.4366693,37.0844479 11.359,37.085 Z" id="Path_348"></path>
                <path d="M11.359,59.454 C10.5693988,59.4544045 9.85732194,58.9790715 9.55487432,58.2496912 C9.2524267,57.5203109 9.41918461,56.680557 9.97737396,56.1220815 C10.5355633,55.5636061 11.3752317,55.3964179 12.1047669,55.6984917 C12.8343021,56.0005655 13.3099999,56.7123987 13.31,57.502 C13.3100001,58.5796694 12.4366693,59.4534479 11.359,59.454 Z" id="Path_349"></path>
                <path d="M11.359,81.825 C10.5693988,81.8254045 9.85732194,81.3500715 9.55487432,80.6206912 C9.2524267,79.8913109 9.41918461,79.051557 9.97737396,78.4930815 C10.5355633,77.9346061 11.3752317,77.7674179 12.1047669,78.0694917 C12.8343021,78.3715655 13.3099999,79.0833987 13.31,79.873 C13.3100001,80.9506694 12.4366693,81.8244479 11.359,81.825 Z" id="Path_350"></path>
                <path d="M11.359,104.194 C10.5693988,104.194405 9.85732194,103.719072 9.55487432,102.989691 C9.2524267,102.260311 9.41918461,101.420557 9.97737396,100.862082 C10.5355633,100.303606 11.3752317,100.136418 12.1047669,100.438492 C12.8343021,100.740566 13.3099999,101.452399 13.31,102.242 C13.3100001,103.319669 12.4366693,104.193448 11.359,104.194 Z" id="Path_351"></path>
                <path d="M11.359,126.565 C10.5693988,126.565405 9.85732194,126.090072 9.55487432,125.360691 C9.2524267,124.631311 9.41918461,123.791557 9.97737396,123.233082 C10.5355633,122.674606 11.3752317,122.507418 12.1047669,122.809492 C12.8343021,123.111566 13.3099999,123.823399 13.31,124.613 C13.3100001,125.690669 12.4366693,126.564448 11.359,126.565 Z" id="Path_352"></path>
                <path d="M11.359,148.936 C10.5693988,148.936405 9.85732194,148.461072 9.55487432,147.731691 C9.2524267,147.002311 9.41918461,146.162557 9.97737396,145.604082 C10.5355633,145.045606 11.3752317,144.878418 12.1047669,145.180492 C12.8343021,145.482566 13.3099999,146.194399 13.31,146.984 C13.3100001,148.061669 12.4366693,148.935448 11.359,148.936 Z" id="Path_353"></path>
                <path d="M11.359,171.305 C10.5693988,171.305405 9.85732194,170.830072 9.55487432,170.100691 C9.2524267,169.371311 9.41918461,168.531557 9.97737396,167.973082 C10.5355633,167.414606 11.3752317,167.247418 12.1047669,167.549492 C12.8343021,167.851566 13.3099999,168.563399 13.31,169.353 C13.3100001,170.430669 12.4366693,171.304448 11.359,171.305 Z" id="Path_354"></path>
                <path d="M2.951,3.907 C1.87294017,3.907 0.999,3.03305983 0.999,1.955 C0.999,0.876940168 1.87294017,0.003 2.951,0.003 C4.02905983,0.003 4.903,0.876940168 4.903,1.955 C4.90326546,2.47278392 4.69769416,2.96943701 4.33156559,3.33556559 C3.96543701,3.70169416 3.46878392,3.90726546 2.951,3.907 Z" id="Path_355"></path>
                <path d="M2.951,26.274 C1.87294017,26.274 0.999,25.4000598 0.999,24.322 C0.999,23.2439402 1.87294017,22.37 2.951,22.37 C4.02905983,22.37 4.903,23.2439402 4.903,24.322 C4.90326546,24.8397839 4.69769416,25.336437 4.33156559,25.7025656 C3.96543701,26.0686942 3.46878392,26.2742655 2.951,26.274 Z" id="Path_356"></path>
                <path d="M2.951,48.644 C1.873753,48.6434477 1.00081619,47.769914 1.00100028,46.6926668 C1.00118438,45.6154197 1.87441971,44.7421844 2.95166684,44.7420003 C4.02891396,44.7418162 4.90244771,45.614753 4.903,46.692 C4.90326546,47.2097839 4.69769416,47.706437 4.33156559,48.0725656 C3.96543701,48.4386942 3.46878392,48.6442655 2.951,48.644 Z" id="Path_357"></path>
                <path d="M2.951,71.015 C1.87294017,71.015 0.999,70.1410598 0.999,69.063 C0.999,67.9849402 1.87294017,67.111 2.951,67.111 C4.02905983,67.111 4.903,67.9849402 4.903,69.063 C4.903,70.1410598 4.02905983,71.015 2.951,71.015 Z" id="Path_358"></path>
                <path d="M2.951,93.385 C1.87294017,93.385 0.999,92.5110598 0.999,91.433 C0.999,90.3549402 1.87294017,89.481 2.951,89.481 C4.02905983,89.481 4.903,90.3549402 4.903,91.433 C4.90326546,91.9507839 4.69769416,92.447437 4.33156559,92.8135656 C3.96543701,93.1796942 3.46878392,93.3852655 2.951,93.385 Z" id="Path_359"></path>
                <path d="M2.951,115.755 C1.87294017,115.755 0.999,114.88106 0.999,113.803 C0.999,112.72494 1.87294017,111.851 2.951,111.851 C4.02905983,111.851 4.903,112.72494 4.903,113.803 C4.903,114.320703 4.69734345,114.817201 4.33127244,115.183272 C3.96520143,115.549343 3.46870259,115.755 2.951,115.755 Z" id="Path_360"></path>
                <path d="M2.951,138.126 C1.87294017,138.126 0.999,137.25206 0.999,136.174 C0.999,135.09594 1.87294017,134.222 2.951,134.222 C4.02905983,134.222 4.903,135.09594 4.903,136.174 C4.90326546,136.691784 4.69769416,137.188437 4.33156559,137.554566 C3.96543701,137.920694 3.46878392,138.126265 2.951,138.126 Z" id="Path_361"></path>
                <path d="M2.951,160.496 C1.87294017,160.496 0.999,159.62206 0.999,158.544 C0.999,157.46594 1.87294017,156.592 2.951,156.592 C4.02905983,156.592 4.903,157.46594 4.903,158.544 C4.90326546,159.061784 4.69769416,159.558437 4.33156559,159.924566 C3.96543701,160.290694 3.46878392,160.496265 2.951,160.496 Z" id="Path_362"></path>
            </g>
            <g id="Group_135" transform="translate(0.198000, 0.106000)">
                <g id="Group_109" transform="translate(1513.095000, 1677.449000)">
                    <g id="Group_108">
                        <g id="Group_104" transform="translate(13.586000, 13.740000)" fill="#261910">
                            <path d="M22.104,20.072 C22.104,20.072 25.149,-2.028 19.087,0.152 C13.025,2.332 15.808,11.19 22.104,20.072 Z" id="Path_363"></path>
                            <path d="M22.507,19.858 C22.507,19.858 10.107,-1.942 1.556,5.553 C-6.995,13.048 22.507,19.858 22.507,19.858 Z" id="Path_364"></path>
                        </g>
                        <g id="Group_107">
                            <g id="Group_105">
                                <path d="M0,49.435 L147.528,49.435 L145.677,42.984 L141.324,27.705 C138.234718,16.9133978 127.522906,10.1723695 116.457,12.056 L110.871,13.025 C110.463268,13.0941052 110.050544,13.129558 109.637,13.131 C107.143385,13.1271459 104.81673,11.8771316 103.437,9.8 C98.9949982,3.1436504 91.2916089,-0.579036852 83.3161076,0.076515114 C75.3406062,0.73206708 68.3484796,5.66266265 65.053,12.955 L64.102,15.07 C62.4152941,18.8043435 58.0234347,20.4678453 54.286,18.788 L48.735,16.303 C45.6155134,14.9012433 41.9421199,15.8092732 39.835,18.503 C39.0661842,19.4693746 38.5564625,20.6158183 38.354,21.834 L37.526,26.663 C37.3356177,27.7971693 36.8833004,28.8712944 36.205,29.8 C36.081,29.959 35.958,30.117 35.835,30.258 C34.7154297,31.5530236 33.1850787,32.4242822 31.5,32.726 C31.0646065,32.8115606 30.6217099,32.8531031 30.178,32.85 C28.7442172,32.8536217 27.3408961,32.4363805 26.142,31.65 C23.1959509,29.7287279 19.3069659,30.1329354 16.819,32.619 L0,49.435 Z" id="Path_365" fill="#2568EF"></path>
                                <path d="M29.871,49.434 L147.525,49.434 L145.674,42.983 C139.692387,37.6006307 131.574122,35.256173 123.644,36.621 L119.291,37.362 L116.947,37.749 C113.476319,38.3473092 109.979539,36.8410704 108.03,33.908 C106.613728,31.760252 104.885044,29.8357476 102.901,28.198 C102.177376,27.5762308 101.411908,27.0048868 100.61,26.488 C94.1549917,22.2531008 86.1697148,21.0559151 78.7565965,23.2116472 C71.3434783,25.3673794 65.2454321,30.6599906 62.068,37.696 L60.922,40.196 C58.9045828,44.6804846 53.6361399,46.6835043 49.149,44.672 L45.765,43.156 L42.505,41.693 C39.989682,40.5641788 37.0937076,40.6620607 34.6603496,41.9581436 C32.2269916,43.2542265 30.5298087,45.6028045 30.063,48.32 L29.871,49.434 Z" id="Path_366" fill="#1054DD"></path>
                                <path d="M125.789,22.828 C125.789,24.7179184 127.321082,26.25 129.211,26.25 C131.100918,26.25 132.633,24.7179184 132.633,22.828 C132.633,20.9380816 131.100918,19.406 129.211,19.406 C127.32131,19.406552 125.789552,20.9383103 125.789,22.828 Z" id="Path_367" fill="#1054DD"></path>
                                <path d="M42.506,25.044 C38.064,30.879 44.657,37.472 50.491,33.031 C54.936,27.196 48.341,20.6 42.506,25.044 Z" id="Path_368" fill="#1054DD"></path>
                                <path d="M74.438,12.205 C74.4385523,17.2216943 78.505639,21.288184 83.5223333,21.2879999 C88.5390276,21.2878158 92.6058158,17.2210276 92.6059999,12.2043333 C92.606184,7.18763899 88.5396943,3.12055229 83.523,3.12 C81.1134269,3.11973473 78.8024674,4.07681644 77.0986419,5.78064194 C75.3948164,7.48446745 74.4377347,9.79542688 74.438,12.205 Z" id="Path_369" fill="#1054DD"></path>
                            </g>
                            <g id="Group_106" transform="translate(70.090000, 30.204000)" fill="#261910">
                                <path d="M18.362,15.992 C18.362,15.992 30.162,1.118 24.773,0.092 C19.384,-0.934 17.593,6.759 18.362,15.992 Z" id="Path_370"></path>
                                <path d="M18.362,15.992 C18.362,15.992 10.925,-4.008 2.718,1.118 C-5.489,6.244 18.362,15.992 18.362,15.992 Z" id="Path_371"></path>
                                <path d="M18.362,15.992 C18.362,15.992 45.801,12.658 38.878,8.299 C31.955,3.94 18.362,15.992 18.362,15.992 Z" id="Path_372"></path>
                            </g>
                        </g>
                    </g>
                </g>
                <path d="M1841.281,1728.342 C1818.37,1756.842 1785.145,1774.767 1748.11,1774.827 C1732.31622,1774.8514 1716.69093,1771.5818 1702.232,1765.227 C1694.92419,1762.01642 1686.5413,1762.37242 1679.532,1766.191 C1667.45437,1772.7179 1653.45187,1774.74529 1640.019,1771.912 C1590.119,1786.443 1548.625,1780.512 1519.702,1745.241 C1515.32868,1739.94916 1511.41261,1734.29552 1507.996,1728.341 L1841.281,1728.342 Z" id="Path_373" fill="url(#linearGradient-1)"></path>
                <path d="M1869.802,1450.253 L1869.802,1744.047 L1861.396,1744.047 L1861.396,1454.816 L1748.716,1488.23 L1748.716,1730.976 L1739.209,1730.976 L1739.209,1489.007 C1739.17179,1485.90438 1741.12056,1483.12474 1744.05,1482.102 L1860.741,1443.348 C1862.90093,1442.68374 1865.24865,1443.10224 1867.046,1444.47193 C1868.84336,1445.84162 1869.86958,1447.99425 1869.802,1450.253 Z" id="Path_374" fill="url(#linearGradient-2)"></path>
                <polygon id="Path_375" fill-opacity="0.6" fill="#2568EF" points="1861.396 1454.333 1861.396 1744.047 1748.715 1730.953 1748.715 1487.803"></polygon>
                <polygon id="Path_376" fill="#1054DD" points="1853.575 1443.397 1853.575 1749.209 1749.3 1730.857 1748.715 1730.767 1748.715 1488.183 1853.386 1443.483"></polygon>
                <g id="Group_110" transform="translate(1748.716000, 1443.398000)" fill="#FFFFFF" opacity="0.25">
                    <polygon id="Path_377" points="104.86 0 104.86 100.007 0 230.047 0 129.903 104.671 0.081"></polygon>
                    <polygon id="Path_378" points="104.86 129.875 104.86 165.775 0.585 288.195 -2.27373675e-13 288.109 -2.27373675e-13 252.92"></polygon>
                </g>
                <g id="Group_114" transform="translate(0.160000, 0.050000)">
                    <path d="M1763.308,1546.419 C1761.163,1550.119 1763.015,1555.186 1760.85,1558.88 C1759.984,1560.358 1758.516,1561.52 1758.1,1563.18 C1757.74049,1564.61675 1758.26004,1566.13053 1759.42608,1567.0437 C1760.59212,1567.95686 1762.1863,1568.09842 1763.495,1567.405 C1763.75794,1567.23917 1764.03704,1567.10046 1764.328,1566.991 C1765.399,1566.678 1766.367,1567.628 1767.287,1568.257 C1768.41165,1569.07471 1769.85025,1569.32886 1771.187,1568.946 C1772.849,1568.39 1773.877,1566.714 1774.431,1565.051 C1775.979,1560.402 1774.88,1555.312 1773.448,1550.626 C1772.733,1548.284 1771.677,1545.687 1769.382,1544.837" id="Path_379" fill="#261910"></path>
                    <path d="M1713.477,1585.835 C1713.442,1586.35 1712.658,1586.794 1713.177,1587.878 C1714.343,1590.297 1717.972,1593.648 1722.313,1592.107 C1722.502,1592.175 1746.294,1605.927 1748.126,1605.927 C1749.958,1605.927 1762.445,1594.112 1766.526,1579.492 C1767.5,1576.004 1767.126,1571.9 1763.852,1570.136 C1761.87544,1570.80758 1760.25477,1572.25043 1759.359,1574.136 C1756.659,1579.236 1748.559,1596.148 1746.759,1596.786 C1744.522,1595.295 1733.627,1592.057 1724.804,1588.309 C1723.33828,1587.83324 1722.113,1586.80966 1721.384,1585.452 C1720.39535,1583.40725 1719.16489,1581.48853 1717.719,1579.737 C1717.246,1579.254 1717.056,1582.432 1717.255,1582.945 C1717.595,1583.617 1713.513,1582.383 1713.173,1583.795 C1713.123,1583.996 1713.496,1585.566 1713.477,1585.835 Z" id="Path_380" fill="#FFB9B0"></path>
                    <path d="M1764.81,1569.704 C1761.75016,1570.41131 1759.15473,1572.42551 1757.71,1575.214 C1757.34688,1575.93604 1757.02373,1576.67749 1756.742,1577.435 C1755.474,1580.658 1753.73,1583.577 1752.464,1586.8 C1754.16954,1588.00174 1756.0616,1588.91398 1758.064,1589.5 C1759.72635,1590.11771 1761.50555,1590.35685 1763.272,1590.2 C1763.57317,1590.18593 1763.86975,1590.12066 1764.149,1590.007 C1764.50421,1589.81236 1764.81485,1589.54567 1765.061,1589.224 C1765.603,1588.602 1766.131,1587.96867 1766.645,1587.324 C1767.11908,1586.79531 1767.48074,1586.17577 1767.708,1585.503 C1767.87416,1584.55174 1767.78796,1583.57354 1767.458,1582.666" id="Path_381" fill="#FFFFFF"></path>
                    <path d="M1761.697,1578.51 C1761.80165,1578.36199 1761.94153,1578.24239 1762.104,1578.162 C1762.44339,1578.06903 1762.80131,1578.22792 1762.96,1578.542 C1763.1048,1578.85183 1763.16583,1579.19422 1763.137,1579.535 C1763.1223,1580.84399 1762.91749,1582.1439 1762.529,1583.394 L1762.935,1590.194 L1762.925,1590.207 C1761.26961,1590.31211 1759.61051,1590.07028 1758.054,1589.497 C1757.319,1589.224 1756.525,1588.941 1755.726,1588.617 C1756.542,1584.786 1759.155,1581.541 1761.697,1578.51 Z" id="Path_382" fill="#7762EF" opacity="0.35" style="mix-blend-mode: multiply;"></path>
                    <path d="M1772.241,1562.953 C1772.241,1562.953 1772.333,1567.21 1771.679,1567.489 C1770.78817,1567.85123 1769.86776,1568.13595 1768.928,1568.34 L1768.885,1577.15 L1780.631,1575.379 L1788.712,1570.879 C1788.712,1570.879 1780.312,1568.095 1780.24,1567.257 C1780.168,1566.419 1780.702,1561.708 1780.702,1561.708" id="Path_383" fill="#FFB9B0"></path>
                    <g id="Group_111" transform="translate(1771.296000, 1626.016000)" fill="#FFB9B0">
                        <path d="M18.992,64.426 L18.999,64.458 C22.212,79.697 20.681,100.629 21.399,112.1 C21.232,112.147 17.032,112.673 17.032,112.673 C17.032,112.673 7.094,64.323 5.29,55.064 C5.17234561,54.4723086 5.09549786,53.8732302 5.06,53.271 C4.627,46.304 10.907,45.949 14.446,51.708 C15.0594839,52.7045371 15.6005447,53.7438818 16.065,54.818 C16.265,55.273 16.45,55.733 16.643,56.224 L16.643,56.24 C17.2535636,57.8306832 17.7737266,59.4546067 18.201,61.104 L18.238,61.281 C18.385,61.768 18.504,62.263 18.623,62.758 L18.647,62.871 C18.77,63.38 18.88,63.894 18.992,64.426 Z" id="Path_384"></path>
                        <path d="M0.174,9.74 C0.291,11.001 0.964,17.001 1.774,24.078 C2.463,30.028 3.22,36.735 3.808,42.047 C4.245,46.03 4.564,49.207 4.698,50.703 C4.75838828,51.5672811 4.87665348,52.4265413 5.052,53.275 L5.052,53.308 C6.565,60.267 11.372,60.67 14.296,59.057 C14.69377,58.8489206 15.0659452,58.5952106 15.405,58.301 C16.0348212,57.7735015 16.4722523,57.0523027 16.649,56.25 L16.649,56.234 C16.834,54.805 17.019,52.856 17.187,50.534 L17.187,50.501 C17.203,50.484 17.203,50.484 17.203,50.467 L17.22,50.417 C17.573,45.896 17.875,40.08 18.144,34.417 C18.463,27.459 18.665,20.752 18.716,16.97 C18.732,16.752 18.732,16.55 18.749,16.349 C18.8,4.749 8.143,-2.678 1.521,0.919 C1.43909998,0.951106561 1.36013767,0.99025313 1.285,1.036 C1.2041786,1.09145746 1.12001939,1.1418862 1.033,1.187 C0.277,1.687 0.024,3.422 0.008,5.405 C-0.028,6.845 0.073,8.426 0.174,9.74 Z" id="Path_385"></path>
                        <path d="M16.392,53.498 L17.203,50.461 C17.203,50.477 17.203,50.477 17.195,50.497 C17.1407499,54.0586128 17.4787863,57.6153729 18.203,61.103 L18.24,61.28 C18.355,61.759 18.478,62.27 18.625,62.757 L18.649,62.87 C18.8139185,63.3762084 18.9288015,63.8973687 18.992,64.426 L18.999,64.458 C19.008,65.836 16.075,59.72 15.399,58.289 C15.316,58.109 15.264,58.003 15.264,58.003 L16.059,54.817 L16.392,53.498 Z" id="Path_386"></path>
                    </g>
                    <g id="Group_112" transform="translate(1752.992000, 1624.510000)" fill="#FFB9B0">
                        <path d="M11.737,68.842 L11.737,68.875 C12.037,84.83 7.114,103.59 5.811,115.175 C5.652,115.18 1.787,114.66 1.787,114.66 C1.787,114.66 1.051,65.782 0.999,56.124 C0.994486679,55.5091944 1.02788337,54.8946953 1.099,54.284 C1.893,47.247 7.599,48.453 9.806,55.06 C10.1890933,56.2038941 10.4993806,57.3708949 10.735,58.554 C10.835,59.054 10.926,59.56 11.016,60.096 L11.016,60.113 C11.2954243,61.8439156 11.4876669,63.5877825 11.592,65.338 L11.592,65.523 C11.642,66.044 11.665,66.565 11.692,67.088 L11.692,67.206 C11.715,67.747 11.727,68.286 11.737,68.842 Z" id="Path_387"></path>
                        <path d="M8.422,62.334 C8.81760605,62.2268011 9.1953088,62.0620405 9.543,61.845 C10.2264596,61.4672877 10.7482191,60.8526999 11.01,60.117 L11.01,60.099 C11.428,58.725 11.928,56.805 12.482,54.54 C12.495,54.521 12.495,54.521 12.493,54.503 L12.517,54.447 C13.595,50.047 14.871,44.335 16.063,38.779 C17.527,31.939 18.854,25.314 19.536,21.553 C19.589,21.353 20.179,18.612 20.219,18.411 C22.264,6.755 13.173,-0.837 6.567,1.385 C6.467,1.415 6.39,1.444 6.308,1.473 C4.98,2.007 4.608,6.679 4.308,9.836 C4.008,12.993 1.764,45.718 1.208,51.636 C1.1202059,52.5168375 1.08114637,53.4018529 1.091,54.287 C1.249,61.605 5.512,63.207 8.422,62.334 Z" id="Path_388"></path>
                        <path d="M11.252,57.321 L12.496,54.501 C12.496,54.517 12.496,54.517 12.484,54.535 C11.8264452,58.09616 11.5269527,61.7141901 11.59,65.335 L11.59,65.52 C11.613,66.025 11.637,66.563 11.69,67.085 L11.69,67.203 C11.7527092,67.745306 11.7677668,68.2920647 11.735,68.837 L11.735,68.87 C11.509,70.242 9.909,63.432 9.547,61.841 C9.504,61.641 9.475,61.523 9.475,61.523 L10.73,58.551 L11.252,57.321 Z" id="Path_389"></path>
                    </g>
                    <path d="M1784.496,1613.365 C1784.496,1613.365 1793.051,1624.232 1792.173,1635.151 C1791.807,1639.697 1791.244,1643.701 1790.726,1648.274 C1790.652,1648.933 1790.075,1678.354 1790.363,1678.364 C1790.363,1678.364 1791.285,1686.107 1794.051,1730.169 C1794.443,1736.413 1788.46,1736.483 1786.307,1736.437 C1786.029,1736.431 1772.849,1660.507 1772.566,1660.496 C1772.34,1660.488 1770.587,1672.169 1768.513,1686.304 C1765.336,1707.952 1761.221,1737.198 1760.865,1737.174 C1755.987,1736.85 1758.253,1737.558 1752.937,1735.33 C1752.937,1734.167 1751.155,1631.412 1763.096,1612.03 C1770.1878,1612.99054 1777.33981,1613.4367 1784.496,1613.365 Z" id="Path_390" fill="#261910"></path>
                    <path d="M1757.707,1588.275 C1757.775,1591.389 1759.431,1593.283 1761.807,1595.908 C1762.107,1596.375 1762.845,1603.314 1763.097,1607.928 C1763.228,1610.328 1762.202,1611.838 1763.097,1612.035 C1766.516,1615.018 1778.84,1617.435 1784.497,1613.362 C1783.904,1608.344 1786.152,1597.29 1787.669,1591.669 C1787.905,1590.804 1788.113,1590.069 1788.302,1589.51 C1789.714,1585.241 1792.264,1571.551 1790.377,1570.954 C1790.001,1570.835 1789.417,1570.681 1788.74,1570.477 C1785.786,1569.586 1781.42,1568.056 1781.42,1568.056 C1781.42,1568.056 1778.859,1575.63 1772.202,1576.545 C1768.568,1575.045 1768.889,1570.452 1768.932,1568.345 C1767.744,1568.674 1767.22,1569 1763.532,1570.091 C1762.5,1571.579 1763.391,1574.686 1761.723,1579.318 C1761.307,1580.464 1757.625,1584.484 1757.707,1588.275 Z" id="Path_391" fill="#FFFFFF"></path>
                    <path d="M1765.295,1544.027 C1765.295,1544.027 1763.071,1553.795 1764.476,1558.107 C1765.516,1561.302 1769.785,1564.284 1773.355,1564.243 C1783.182,1564.243 1784.945,1550.895 1784.893,1550.249 C1784.841,1549.603 1770.399,1544 1770.399,1544 L1765.295,1544.027 Z" id="Path_392" fill="#FFB9B0"></path>
                    <g id="Group_113" transform="translate(1778.821000, 1569.829000)">
                        <path d="M55.043,12.571 L51.824,8.741 L32.188,26.3 C32.188,26.3 22.601,13.539 19.964,9.554 C17.064,5.173 14.45,1.426 10.21,0.693 C9.234,1.293 10.54,17.032 11.05,17.413 C16.974,21.845 28.502,36.142 32.169,36.885 C36.405,37.746 55.043,12.571 55.043,12.571 Z" id="Path_394" fill="#FFB9B0"></path>
                        <path d="M8.756,0 C8.756,0 12.768,0.05 14.493,1.471 C16.218,2.892 24.459,15.955 24.459,15.955 C24.4637956,17.7180901 23.6663715,19.3876393 22.292,20.492 C20.5854073,21.8744576 18.5328677,22.7632574 16.357,23.062 C16.357,23.062 12.219,18.945 9.888,17.071 C8.435,15.904 8.288,18.793 8.288,18.793 L0.994,11.673 L8.756,0 Z" id="Path_395" fill="#FFFFFF"></path>
                    </g>
                    <path d="M1825.684,1583.037 C1825.684,1583.037 1830.299,1579.337 1830.614,1578.324 C1830.929,1577.311 1830.997,1576.224 1831.377,1575.237 C1831.96783,1573.78523 1833.12265,1572.63546 1834.577,1572.051 C1835.734,1571.575 1835.167,1571.183 1836.407,1571.422 C1838.278,1571.784 1839.165,1573.622 1839.912,1575.05 C1843.099,1581.158 1834.37,1582.316 1834.062,1582.328 C1833.425,1582.353 1830.177,1586.036 1830.177,1586.036" id="Path_396" fill="#FFB9B0"></path>
                    <path d="M1839.585,1577.168 C1839.86127,1575.49819 1839.46112,1573.78712 1838.473,1572.413 C1838.1287,1571.97564 1837.74982,1571.56666 1837.34,1571.19 C1837.1554,1570.98217 1836.91957,1570.82633 1836.656,1570.738 C1836.13871,1570.66716 1835.61327,1570.78617 1835.177,1571.073 C1834.65358,1571.33137 1834.22799,1571.7524 1833.964,1572.273 C1833.73111,1573.04902 1834.11272,1573.87698 1834.854,1574.204 C1834.92547,1574.23698 1834.98314,1574.29394 1835.017,1574.365 C1835.055,1574.477 1834.976,1574.617 1834.906,1574.741 C1834.59106,1575.2066 1834.42729,1575.75797 1834.437,1576.32 C1834.46373,1576.57595 1834.59599,1576.80916 1834.80193,1576.96348 C1835.00787,1577.11779 1835.26884,1577.17923 1835.522,1577.133 C1835.762,1577.095 1836.079,1577.003 1836.158,1577.183 C1836.17571,1577.25086 1836.17571,1577.32214 1836.158,1577.39 C1836.0848,1577.86633 1836.21831,1578.35126 1836.525,1578.723 C1836.59599,1578.81906 1836.70064,1578.88478 1836.818,1578.907 C1836.92204,1578.9137 1837.02637,1578.89976 1837.125,1578.866 C1837.50609,1578.7571 1837.86998,1578.59519 1838.206,1578.385" id="Path_397" fill="#FFB9B0"></path>
                    <path d="M1830.645,1578.575 C1830.81319,1577.75502 1830.93902,1576.92693 1831.022,1576.094 C1831.07476,1574.19586 1832.07797,1572.45132 1833.692,1571.451 C1833.81782,1571.36041 1833.97131,1571.31656 1834.126,1571.327 C1834.31893,1571.37808 1834.45998,1571.54343 1834.48,1571.742 C1834.49571,1571.93666 1834.46663,1572.13232 1834.395,1572.314 C1834.207,1572.902 1833.374,1574.004 1833.632,1574.614 C1834.05727,1575.51401 1834.28211,1576.49561 1834.291,1577.491 C1834.261,1578.368 1833.852,1579.791 1832.812,1579.938" id="Path_398" fill="#FFB9B0"></path>
                </g>
                <g id="Group_118" transform="translate(1833.050000, 1550.661000)">
                    <g id="Group_115" transform="translate(0.000000, 2.188000)" fill="#261910">
                        <path d="M8.85,34.45 L8.672,34.45 C3.88487111,34.4444893 0.00551068683,30.5651289 0,25.778 L0,8.673 C0.00551068683,3.88587111 3.88487111,0.00651068683 8.672,0.001 L8.672,4.159 C6.18012893,4.16175558 4.16075558,6.18112893 4.158,8.673 L4.158,25.773 C4.16075558,28.2648711 6.18012893,30.2842444 8.672,30.287 L8.85,30.287 L8.85,34.45 Z" id="Path_399"></path>
                    </g>
                    <g id="Group_116" transform="translate(7.129000, 0.000000)">
                        <path d="M3.564,4.425 C3.564,6.868 2.931,8.85 2.151,8.85 C1.371,8.85 0.737,6.869 0.737,4.425 C0.737,1.981 1.37,0 2.151,0 C2.932,0 3.564,1.981 3.564,4.425 Z" id="Path_400" fill="#FFDE6E"></path>
                        <path d="M2.83,4.425 C2.83,6.868 2.198,8.85 1.417,8.85 C0.636,8.85 0.003,6.869 0.003,4.425 C0.003,1.981 0.636,0 1.417,0 C2.198,0 2.83,1.981 2.83,4.425 Z" id="Path_401" fill="#261910"></path>
                    </g>
                    <g id="Group_117" transform="translate(7.129000, 29.727000)">
                        <path d="M3.564,4.425 C3.564,6.868 2.931,8.85 2.151,8.85 C1.371,8.85 0.737,6.869 0.737,4.425 C0.737,1.981 1.37,2.27373675e-13 2.151,2.27373675e-13 C2.932,2.27373675e-13 3.564,1.981 3.564,4.425 Z" id="Path_402" fill="#FFDE6E"></path>
                        <path d="M2.83,4.425 C2.83,6.868 2.198,8.85 1.417,8.85 C0.636,8.85 0.003,6.869 0.003,4.425 C0.003,1.981 0.636,2.27373675e-13 1.417,2.27373675e-13 C2.198,2.27373675e-13 2.83,1.981 2.83,4.425 Z" id="Path_403" fill="#261910"></path>
                    </g>
                </g>
                <polygon id="Path_404" fill="#2568EF" points="1787.624 1737.286 1793.024 1735.804 1793.897 1741.773 1779.397 1746.259"></polygon>
                <polygon id="Path_405" fill="#2568EF" points="1757.533 1738.782 1763.128 1738.676 1762.501 1744.676 1747.34 1745.446"></polygon>
                <g id="Group_119" transform="translate(1760.311000, 1533.897000)">
                    <path d="M34.284,26.71 C33.638,25.5 32.42,24.71 31.584,23.617 C30.5288094,22.0252635 29.9752946,20.1536241 29.995,18.244 C30.0190121,16.3468031 29.8909354,14.4507332 29.612,12.574 C28.932,9.403 28.029,6.383 25.585,4.34 C21.812,1.187 14.395,-0.713 10.043,2.421 C8.855,1.173 4.827,-2.444 2.181,2.616 C0.87,5.121 0.824,6.796 1.205,7.908 C1.10297629,8.23085472 1.06692818,8.57093116 1.099,8.908 C1.47813989,10.4882684 2.42891368,11.872216 3.768,12.793 C4.23642617,13.0255854 4.7541158,13.1415424 5.277,13.131 C6.941,13.164 8.32,12.08 9.953,12.256 C10.7577104,12.3530344 11.492644,12.7606929 12.001,13.392 C12.59,14.118 12.51,15.131 13.201,15.809 C13.8704251,16.3751701 14.6789807,16.7521739 15.543,16.901 C15.79,17.837 16.082,18.845 16.443,19.942 C16.9971212,21.5925192 17.4125622,23.2863949 17.685,25.006 C17.647,24.606 17.603,24.198 17.549,23.752 C17.291,21.652 17.11,19.402 16.982,17.361 C17.095,17.41 17.209,17.456 17.317,17.515 C17.5428437,17.6160029 17.7370699,17.7763604 17.879,17.979 C17.9832021,18.1970974 18.0319771,18.4375377 18.021,18.679 C18.0463333,19.367 18.0716667,20.0543333 18.097,20.741 C18.745,20.456 18.812,19.534 19.346,19.07 C19.9195997,18.6608128 20.7018503,18.711375 21.218,19.191 C21.7061165,19.6740825 22.0222812,20.3039527 22.118,20.984 C22.1991172,21.8223937 22.0741606,22.6679101 21.754,23.447 C21.327,24.847 20.127,26.11 19.154,25.184 C18.454,26.218 19.219,27.946 19.245,29.116 C19.265,30.044 19.245,31.883 18.381,32.493 C17.581,33.053 16.319,32.628 16.271,34.072 C16.3973714,35.4346075 17.497236,36.502223 18.863,36.588 C20.188283,36.6300886 21.5081235,36.4000184 22.741,35.912 C23.9810624,35.4238531 25.3472501,35.3570898 26.629,35.722 C27.3218171,36.1225453 28.0535841,36.4515724 28.813,36.704 C29.5619188,36.7757675 30.3134911,36.5971064 30.95,36.196 C31.169,36.08 31.384,35.954 31.593,35.829 C32.759291,35.2841331 33.6931745,34.3413859 34.227,33.17 C34.912,31.329 35.24,28.5 34.284,26.71 Z" id="Path_406" fill="#261910"></path>
                    <path d="M17.66,30.37 C18.0038351,28.6005954 18.0116375,26.7822902 17.683,25.01 C17.9248601,26.7890276 17.9171187,28.5931136 17.66,30.37 Z" id="Path_407" fill="#5045AF"></path>
                    <path d="M17.66,30.37 C17.6049395,30.6300693 17.5259361,30.8844868 17.424,31.13 C17.5426133,30.8908414 17.6222827,30.634279 17.66,30.37 Z" id="Path_408" fill="#5045AF"></path>
                </g>
                <g id="Group_121" transform="translate(1723.743000, 1563.381000)">
                    <path d="M7.06,1.462 C7.06,1.462 10.56,7.537 8.223,11.862 L6.634,10.796 C6.634,10.796 3.661,6.469 1.521,5.386 L2.884,3.118 L3.974,4.334 L3.284,2.634 L5.884,1.312 L6.333,0.996 L7.06,1.462 Z" id="Path_409" fill="#F8BD37"></path>
                    <path d="M3.012,3.587 C3.012,3.587 8.973,7.275 8.973,12.187 L7.073,12.003 C7.073,12.003 2.402,9.603 0.005,9.668 L0.128,7.026 L0.251,6.411 L1.911,4.011 L2.157,3.519 L3.012,3.587 Z" id="Path_410" fill="#F9DD8C"></path>
                    <g id="Group_120" transform="translate(3.711000, 6.974000)" fill="#FFFFFF">
                        <path d="M0.236,2.359 L0.379,2.067 C0.223189607,1.98972899 0.0919597993,1.87061803 2.27373675e-13,1.723 L0.164,1.564 C0.248528096,1.70528427 0.371706581,1.81944123 0.519,1.893 C0.597153223,1.94562272 0.693723933,1.9632364 0.785422626,1.94159323 C0.87712132,1.91995006 0.955624527,1.86101459 1.002,1.779 C1.08,1.62 1.016,1.467 0.845,1.279 C0.607,1.019 0.491,0.796 0.614,0.546 C0.738409994,0.304073172 1.02602609,0.195946818 1.279,0.296 L1.422,0.005 L1.601,0.093 L1.463,0.373 C1.59395603,0.438594835 1.70586583,0.536731116 1.788,0.658 L1.622,0.813 C1.54434115,0.693568192 1.43538048,0.597751984 1.307,0.536 C1.23848608,0.487231502 1.15231983,0.470254131 1.07042709,0.489387948 C0.988534355,0.508521765 0.918811427,0.561921842 0.879,0.636 C0.805,0.786 0.879,0.914 1.079,1.141 C1.317,1.409 1.392,1.633 1.266,1.89 C1.13497578,2.14457605 0.833023877,2.25931777 0.566,2.156 L0.418,2.456 L0.236,2.359 Z" id="Path_411"></path>
                    </g>
                </g>
                <path d="M1837.413,1563.994 C1837.413,1563.994 1833.726,1568.664 1834.278,1570.569 C1834.83,1572.474 1833.478,1575.977 1837.228,1574.011 C1840.978,1572.045 1837.413,1563.994 1837.413,1563.994 Z" id="Path_412" fill="#FFB9B0"></path>
                <g id="Group_124" transform="translate(1701.809000, 1691.069000)">
                    <g id="Group_123">
                        <g id="Group_122">
                            <polygon id="Path_413" fill="#F9DD8C" points="31.719 61.086 0 49.208 0 11.878 31.719 23.756"></polygon>
                            <polygon id="Path_414" fill="#FFDE6E" points="63.438 49.208 31.719 61.086 31.719 23.756 63.438 11.878"></polygon>
                            <polygon id="Path_415" fill="#F8BD37" points="31.719 0 0 11.878 31.716 23.756 63.435 11.878"></polygon>
                            <polygon id="Path_416" fill="#FFFFFF" opacity="0.45" points="20.349 4.255 12.413 7.196 44.128 19.074 52.064 16.133"></polygon>
                        </g>
                        <polygon id="Path_417" fill="#FFFFFF" opacity="0.45" points="44.124 19.069 44.124 28.538 45.391 27.838 46.057 26.778 46.357 28.354 46.963 27.081 47.263 27.808 49.687 27.081 49.987 25.566 50.532 26.717 52.077 25.748 52.05 16.125"></polygon>
                        <polygon id="Path_418" fill="#FFFFFF" opacity="0.45" points="52.087 53.464 52.087 43.995 50.82 44.695 50.153 45.756 49.853 44.18 49.247 45.453 48.947 44.726 46.523 45.453 46.223 46.968 45.678 45.816 44.133 46.786 44.16 56.409"></polygon>
                    </g>
                </g>
                <g id="Group_134" transform="translate(1587.393000, 1530.164000)">
                    <g id="Group_127" transform="translate(0.000000, 96.636000)">
                        <g id="Group_125" transform="translate(61.423000, 105.788000)" fill="#261910">
                            <path d="M-2.5243549e-29,2.306 L-2.5243549e-29,11.294 L24.241,13.885 L10.541,0 C6.93589604,0.265857856 3.38680552,1.04227402 -2.27373675e-13,2.306 Z" id="Path_419"></path>
                        </g>
                        <g id="Group_126">
                            <path d="M52.107,3.707 C52.107,3.707 48.1,16.476 40.499,36.753 C38.215,42.838 34.844,51.376 31.268,60.344 C28.668,66.844 25.951,73.562 23.442,79.76 L23.442,79.779 C17.863,93.503 13.312,104.55 13.312,104.55 C13.312,104.55 3.595,102.21 3.876,101.124 C4.718,97.884 17.469,29.924 19.097,19.191 C21.906,0.767 21.456,-2.27373675e-13 21.456,-2.27373675e-13 L52.107,3.707 Z" id="Path_420" fill="#1054DD"></path>
                            <path d="M54.271,0.179 C54.271,0.179 57.271,13.222 60.96,34.561 C62.065,40.961 63.472,50.036 64.921,59.582 C65.959,66.503 67.014,73.675 67.982,80.29 L67.992,80.306 C70.115,94.968 71.774,106.799 71.774,106.799 C71.774,106.799 62.206,109.692 61.9,108.613 C60.99,105.392 37.636,40.304 33.619,30.225 C26.729,12.909 25.953,12.473 25.953,12.473 L54.271,0.179 Z" id="Path_421" fill="#1054DD"></path>
                            <path d="M3.16,100.295 L0.003,108.711 L17.94,116.219 L27.196,116.044 L14.518,102.338 C10.8636965,101.061273 7.03015245,100.371721 3.16,100.295 Z" id="Path_422" fill="#261910"></path>
                        </g>
                    </g>
                    <g id="Group_133" transform="translate(14.475000, 0.000000)">
                        <g id="Group_130" transform="translate(0.000000, 26.041000)">
                            <g id="Group_129">
                                <path d="M46.479,24.117 L36.645,29.68 C36.645,29.68 50.511,48.265 59.984,51.553 C69.457,54.841 100.631,39.383 103.944,36.516 C104.962,35.635 105.067,33.135 104.024,32.28 C101.954,30.58 96.33,28.696 90.873,33.107 C90.873,33.107 92.538,29.643 91.527,29.187 C90.516,28.731 88.449,31.013 87.28,33.425 C84.186,39.786 69.74,41.818 66.595,40.639 C59.866,38.316 52.611,30.722 46.479,24.117 Z" id="Path_423" fill="#F9A6A6"></path>
                                <path d="M36.853,8.037 C44.4969828,12.4685387 49.8400235,20.0009015 51.496,28.68 L39.707,34.744 C39.707,34.744 28.599,23.401 31.553,15.956 C34.507,8.511 36.853,8.037 36.853,8.037 Z" id="Path_424" fill="#FFDE6E"></path>
                                <path d="M23.375,5.991 C23.375,5.991 23.35,4.921 20.634,5.391 C17.918,5.861 6.909,7.218 4.734,9.633 C-0.918,15.907 5.611,41.297 5.611,41.297 C5.611,41.297 1.092,65.671 5.722,71.697 C11.458,79.165 39.591,80.871 43.387,71.606 C49.573,56.506 44.212,26.556 43.114,20.113 C41.749,12.107 38.662,10.345 36.472,8.468 C33.305,5.755 23.375,5.991 23.375,5.991 Z" id="Path_425" fill="url(#linearGradient-2)"></path>
                                <path d="M37.855,8.746 L36.955,10.415 C36.955,10.415 35.348,14.495 31.113,14.556 C25.508,14.638 23.789,8.375 23.789,8.375 L22.429,5.346 L37.855,8.746 Z" id="Path_426" fill="#FFDE6E"></path>
                                <path d="M37.342,1.892 L36.953,8.992 C36.953,8.992 35.346,13.071 31.111,13.134 C25.506,13.215 23.787,6.952 23.787,6.952 L22.594,0.998 L37.342,1.892 Z" id="Path_427" fill="#F9A6A6"></path>
                                <path d="M37.342,1.892 C37.342,1.892 34.851,7.139 31.822,7.448 C26.439,7.997 22.594,1 22.594,1 L37.342,1.892 Z" id="Path_428" fill="#E29191"></path>
                                <g id="Group_128" transform="translate(56.741000, 9.771000)">
                                    <polygon id="Path_429" fill="#F8BD37" points="4.407 8.268 1.436 5.276 30.092 0.001 53.644 7.517 49.357 11.804 21.739 18.168"></polygon>
                                    <polygon id="Path_430" fill="#FFDE6E" points="26.09 40.964 53.977 36.354 53.645 7.517 26.345 10.763"></polygon>
                                    <polygon id="Path_431" fill="#FFFFFF" opacity="0.45" points="14.385 2.89 21.505 1.522 44.305 8.622 44.138 14.498 40.858 15.245 40.339 14.245 39.92 15.574 37.41 16.234 37.81 9.956"></polygon>
                                    <polygon id="Path_432" fill="#FFFFFF" opacity="0.45" points="38.485 38.924 38.814 34.379 40.408 34.191 40.708 34.774 40.948 34.011 45.148 33.152 45.277 37.796"></polygon>
                                    <polygon id="Path_433" fill="#F9DD8C" points="1.436 5.275 0 35.275 26.09 40.959 27.556 11.028"></polygon>
                                </g>
                                <path d="M20.273,26.501 L9.686,32.956 C9.686,32.956 23.552,51.541 33.025,54.829 C42.498,58.117 73.673,42.659 76.985,39.791 C78.003,38.91 78.109,36.41 77.066,35.555 C74.995,33.855 69.366,31.971 63.915,36.382 C63.915,36.382 65.58,32.918 64.568,32.462 C63.556,32.006 61.49,34.288 60.321,36.7 C57.227,43.061 42.782,45.094 39.637,43.914 C32.907,41.591 26.407,33.106 20.273,26.501 Z" id="Path_434" fill="#F9A6A6"></path>
                                <path d="M9.997,7.286 C16.269,8.119 18.382,13.304 21.442,28.225 L9.653,34.289 C9.653,34.289 -1.455,22.946 1.499,15.5 C4.453,8.054 7.636,6.973 9.997,7.286 Z" id="Path_435" fill="#FFDE6E"></path>
                            </g>
                        </g>
                        <g id="Group_132" transform="translate(16.190000, 0.000000)">
                            <path d="M25.153,14.761 C25.0906944,14.4567537 25.0112342,14.1562741 24.915,13.861 C22.723,6.619 8.891,11.649 8.891,11.649 L3.451,14.19 L3.165,14.317 C3.08433252,14.2732174 3.00119283,14.2341518 2.916,14.2 C2.2951593,13.8990809 1.58331043,13.8447631 0.924,14.048 C0.328036245,14.386479 -0.0216652175,15.0361466 0.024,15.72 C-0.208,18.681 1.824,23.211 3.65,22.44 C3.65,22.44 5.88,28.521 8.563,29.365 C11.255,30.229 16.497,33.465 20.271,29.599 C23.876,25.897 26.852,21.5 25.153,14.761 Z" id="Path_436" fill="#F9A6A6"></path>
                            <g id="Group_131" transform="translate(1.078000, 0.000000)">
                                <path d="M9.801,13.95 C9.801,13.95 6.134,18.042 5.956,19.388 C5.778,20.734 5.431,16.211 4.185,15.356 C2.939,14.501 1.772,14.933 2.07,14.43 C2.368,13.927 9.801,13.95 9.801,13.95 Z" id="Path_437" fill="#261910"></path>
                                <path d="M27.938,15.11 C27.092,15.133 26.31,15.17 25.581,15.21 C25.5146363,14.913107 25.4301447,14.620559 25.328,14.334 C23.003,7.321 8.407,12.167 8.407,12.167 L2.668,14.617 L2.104,14.627 C1.44249821,14.3354389 0.700410244,14.2820792 0.004,14.476 C0.047,13.23 0.475,5.749 4.538,3.643 C9.001,1.334 17.938,-1.934 22.892,6.159 C23.492,7.159 23.506,9.71 24.343,10.582 C25.17,11.443 32.115,14.995 27.938,15.11 Z" id="Path_438" fill="#1054DD"></path>
                                <path d="M24.339,10.587 C22.7652577,10.494719 21.186946,10.5144354 19.616,10.646 C14.647,10.114 8.408,12.172 8.408,12.172 L2.669,14.622 L8.383,14.508 C8.55307549,14.8125161 8.76515464,15.0915853 9.013,15.337 C10.413,16.937 18.191,16.809 19.552,16.208 C19.9342882,16.0542095 20.3277664,15.9298476 20.729,15.836 C20.888,15.8 21.078,15.764 21.253,15.726 C21.596,15.661 21.963,15.594 22.374,15.534 C22.6,15.503 22.841,15.475 23.086,15.441 C23.559,15.388 24.074,15.336 24.619,15.291 C24.836,15.276 25.039,15.256 25.267,15.242 C26.09,15.185 26.967,15.142 27.939,15.112 C32.112,14.996 25.17,11.444 24.339,10.587 Z" id="Path_439" fill="#1054DD"></path>
                            </g>
                        </g>
                    </g>
                    <path d="M38.066,139.503 L42.066,121.49 C42.066,121.49 47.32,164.772 47.32,164.021 C47.32,163.27 38.066,139.503 38.066,139.503 Z" id="Path_440" fill="#231F20" opacity="0.31"></path>
                </g>
            </g>
        </g>
    </g>
</svg>